# Created by Open3D 
# object name: 1000_output_optimized
# number of vertices: 602
# number of triangles: 1200
v 0.161619 0.231325 0.336045
vn 0.725633 -0.687361 0.0314939
v 0.168709 0.255363 0.371389
vn 0.821762 0.216357 0.527159
v 0.178662 -0.31039 -0.148128
vn -0.11727 0.754334 0.645932
v 0.181592 -0.292262 -0.185279
vn 0.0847957 0.847949 0.523252
v -0.0770777 0.280723 0.395274
vn -0.251613 0.0520202 0.966429
v -0.0263577 0.286957 0.401281
vn -0.287844 0.467393 0.835877
v 0.00764895 0.316573 0.44331
vn 0.363913 -0.312954 0.877284
v 0.0236279 0.275612 0.459329
vn 0.239913 0.796915 0.554408
v 0.0672104 0.263687 0.406801
vn 0.396956 0.781228 0.481776
v 0.0705862 0.318663 0.405652
vn 0.229428 -0.544786 0.80658
v 0.116289 0.258905 0.429208
vn 0.339888 0.748748 0.569081
v 0.0171825 0.241444 0.479081
vn 0.192982 -0.342372 0.919532
v 0.0626554 0.228511 0.438313
vn 0.31488 -0.0230741 0.948851
v 0.122835 -0.0422358 -0.333187
vn 0.147165 0.88209 -0.447503
v 0.0655631 -0.0252564 -0.332916
vn 0.659793 0.660314 -0.358692
v 0.0907093 -0.00184365 -0.313273
vn 0.46457 0.699972 -0.542415
v 0.0233967 -0.00591984 -0.41557
vn 0.533498 0.558478 -0.635203
v 0.0339866 0.00627407 -0.332249
vn 0.554373 0.758675 -0.342174
v 0.109939 -0.0561046 -0.383618
vn 0.308677 0.870289 -0.383816
v 0.0223432 0.0362695 -0.279924
vn 0.00526011 0.887293 -0.461175
v 0.0564057 0.0178738 -0.344792
vn 0.21484 0.688997 -0.69219
v 0.101509 -0.0506113 -0.413803
vn 0.26601 0.831567 -0.487581
v 0.0340518 -0.0838744 -0.454962
vn 0.319558 0.574734 -0.753368
v -0.0940341 0.310955 0.42923
vn -0.181709 -0.63458 0.751192
v -0.0339284 0.329118 0.433012
vn 0.0554685 0.274913 0.959868
v -0.1218 0.339729 0.437531
vn -0.522202 0.2031 0.828285
v -0.140919 0.308804 0.396369
vn -0.600531 -0.584951 0.545155
v 0.107507 0.356231 0.438423
vn 0.291907 0.221228 0.93051
v 0.112334 0.318786 0.411231
vn 0.445054 -0.462929 0.766566
v 0.123621 0.279996 0.381016
vn 0.291315 -0.00475792 0.956615
v 0.141061 0.358879 0.40029
vn 0.863383 -0.0301004 0.50365
v 0.16215 0.326789 0.328041
vn 0.784427 0.284847 0.550942
v -0.0966884 0.248006 0.433564
vn -0.434574 0.386411 0.81353
v 0.138824 0.379319 0.350433
vn 0.826513 0.321953 0.46176
v 0.147209 0.240169 0.434882
vn 0.594848 0.144197 0.790799
v 0.14336 0.209231 0.421131
vn 0.743425 -0.538367 0.396838
v 0.125906 0.186827 0.394055
vn 0.285602 -0.943157 -0.169963
v 0.200215 0.297239 0.291275
vn 0.960456 0.104926 0.257904
v 0.186128 0.209455 0.28015
vn 0.8533 -0.157618 0.497026
v 0.194471 0.219835 0.190544
vn 0.67334 -0.460074 0.578744
v 0.217442 0.18782 0.145233
vn 0.944757 -0.0492243 -0.324055
v 0.229716 0.202012 0.194229
vn 0.680509 -0.426692 0.595686
v 0.181962 0.17158 0.173575
vn 0.922436 -0.103914 0.371905
v 0.234159 0.13708 0.162453
vn 0.796556 0.0512036 0.602392
v 0.207217 0.164151 0.0935419
vn 0.951187 0.272502 -0.144862
v 0.205557 0.278874 0.090217
vn 0.865796 0.363647 -0.34374
v 0.234768 0.210089 0.145602
vn 0.944575 -0.156216 -0.288747
v 0.169437 0.220049 0.0717872
vn 0.866438 0.147591 -0.476972
v 0.198028 0.193703 0.229262
vn 0.948695 -0.315793 0.0158695
v 0.169924 0.278287 0.0421253
vn 0.635008 0.143636 -0.759034
v 0.21624 0.251883 0.159996
vn 0.974371 0.221931 -0.0367246
v 0.221407 0.299047 0.183411
vn 0.824249 0.315749 -0.470017
v 0.233608 0.283698 0.22224
vn 0.921908 0.0109203 0.387256
v 0.126813 0.253086 0.0220736
vn 0.533057 0.34425 -0.772879
v 0.205539 0.263773 0.230553
vn 0.966777 -0.104459 0.233302
v 0.147669 0.221936 -0.00751872
vn 0.725854 0.47448 -0.498
v 0.126894 0.212367 -0.0244442
vn 0.333228 0.033784 -0.942241
v 0.196946 0.206441 0.048094
vn 0.768779 0.562617 -0.30404
v 0.100335 0.177895 -0.0149977
vn 0.449845 -0.00202474 -0.893104
v 0.0833187 0.239037 -0.0390528
vn 0.445894 0.334517 -0.830227
v 0.18984 0.29544 0.150837
vn 0.888782 0.333344 -0.314559
v 0.243704 0.150336 0.119644
vn 0.999707 0.0116371 -0.0212426
v -0.0384441 0.170346 0.39047
vn -0.321531 -0.759093 0.566035
v -0.0875529 0.169861 0.4186
vn -0.143637 -0.982406 0.119364
v -0.134506 0.195714 0.393972
vn -0.808856 -0.51852 0.277288
v -0.0842812 0.159905 0.358027
vn -0.363646 0.129996 0.922422
v -0.125454 0.18333 0.313772
vn -0.747839 -0.233546 0.621444
v 0.0461784 0.186349 0.375048
vn 0.420302 -0.878639 0.226582
v 0.0969438 0.160252 0.330717
vn 0.298539 0.588987 0.750978
v 0.0138439 0.159131 0.397022
vn 0.415764 0.124609 0.900896
v -0.191756 0.223433 0.280949
vn -0.854239 -0.0785331 0.513915
v 0.113767 0.202743 0.349072
vn 0.394317 -0.907737 -0.143275
v 0.144703 0.227866 0.297034
vn 0.646446 -0.497551 0.578403
v -0.0212744 0.176329 0.426712
vn 0.0082181 -0.908399 0.418023
v 0.137904 0.191242 0.305947
vn 0.320983 0.300877 0.898022
v 0.0616427 0.174026 0.427548
vn 0.121109 -0.929909 0.347278
v -0.121258 0.140208 0.368498
vn -0.507224 0.251006 0.824451
v -0.191767 0.270374 0.323867
vn -0.876273 -0.0513839 0.479067
v 0.10445 0.11703 0.377522
vn 0.403002 0.104095 0.90926
v -0.00039052 0.125824 0.40013
vn -0.092773 0.00271195 0.995684
v 0.146417 0.149391 0.350776
vn 0.372971 0.555472 0.743198
v -0.181463 0.18092 0.0681351
vn -0.838281 0.252077 -0.483469
v -0.199598 0.164629 0.139384
vn -0.931541 0.0206989 -0.363046
v -0.222249 0.201318 0.112671
vn -0.9533 -0.239653 0.183809
v -0.212221 0.216087 0.0718907
vn -0.588612 -0.121281 -0.799266
v -0.218783 0.144509 0.0682837
vn -0.853706 0.440269 -0.278116
v -0.222795 0.137653 0.143217
vn -0.906584 0.362498 0.216104
v -0.186727 0.182344 0.220511
vn -0.803356 -0.486952 0.342779
v -0.240616 0.167841 0.189376
vn -0.992935 -0.0903251 0.0769505
v -0.191895 0.250378 0.13028
vn -0.938139 0.275752 -0.209418
v -0.152183 0.192976 0.0657278
vn -0.64401 0.296925 -0.705044
v -0.155425 0.244238 0.0361644
vn -0.516849 -0.196936 -0.833117
v -0.121922 0.222474 0.0378879
vn -0.476468 0.479442 -0.736962
v -0.179064 0.244116 0.0744173
vn -0.73474 0.520731 -0.434737
v -0.178448 0.134309 0.179829
vn -0.705331 0.0160191 0.708697
v -0.125253 -0.145671 -0.45235
vn -0.693708 0.503169 -0.515354
v -0.0927402 -0.192627 -0.471915
vn -0.473183 -0.227931 -0.850967
v -0.1313 -0.175973 -0.432152
vn -0.644947 0.159512 -0.747395
v -0.134731 -0.208063 -0.417683
vn -0.206667 0.249956 -0.945944
v -0.125219 -0.248314 -0.429884
vn -0.355987 -0.291436 -0.887884
v -0.167936 -0.263935 -0.449714
vn 0.311046 -0.536481 -0.784499
v -0.124267 -0.284385 -0.403497
vn -0.0664453 -0.894099 -0.442914
v -0.0382009 -0.269525 -0.457046
vn -0.0297427 -0.845196 -0.533629
v -0.0478099 -0.198237 -0.481999
vn -0.0549236 -0.162882 -0.985116
v -0.199677 -0.251627 -0.461289
vn -0.348302 0.0675199 -0.934948
v 0.16778 -0.436042 0.0599796
vn -0.137736 -0.775236 -0.616472
v 0.147801 -0.383795 0.0802823
vn -0.76946 -0.00824121 -0.638641
v 0.191808 -0.340688 0.0585776
vn -0.322432 -0.128315 -0.937856
v 0.133861 -0.444478 0.102519
vn -0.37672 -0.82974 -0.411842
v 0.211879 -0.404998 0.0531634
vn 0.464571 -0.0646567 -0.883172
v 0.127807 -0.213456 0.0489441
vn -0.528255 -0.599874 -0.600915
v 0.117095 -0.231498 0.112945
vn -0.952791 -0.303351 0.0129382
v 0.0978608 -0.197739 0.0703731
vn -0.234918 -0.968656 -0.0807431
v 0.131475 -0.274832 0.0862812
vn -0.977015 -0.123219 -0.173948
v 0.163618 -0.246052 0.0365415
vn -0.0270677 -0.211491 -0.977005
v 0.130761 -0.394017 0.139158
vn -0.974332 0.152221 0.165849
v 0.126286 -0.232822 0.170179
vn -0.832949 -0.229815 0.503369
v 0.250554 -0.428846 0.0788057
vn 0.794776 0.0270264 -0.606301
v 0.101209 -0.1837 0.15695
vn -0.170317 -0.948343 0.267653
v 0.135133 -0.47016 0.184473
vn -0.443417 -0.887621 -0.12454
v -0.230684 -0.308507 -0.194917
vn -0.149317 0.850186 0.504864
v -0.106764 -0.289495 -0.237643
vn 0.263203 0.581445 0.769835
v -0.149737 -0.256066 -0.244645
vn -0.0473165 0.390286 0.919477
v -0.185036 -0.319269 -0.15402
vn 0.157291 0.728587 0.666649
v -0.151557 -0.232195 -0.220421
vn -0.434669 -0.765582 0.474285
v -0.199104 -0.246193 -0.269151
vn -0.639741 0.331443 0.693453
v -0.242976 -0.204745 -0.255265
vn -0.593425 -0.684804 0.422953
v -0.141125 -0.357776 -0.159895
vn 0.49073 -0.651923 0.578084
v -0.115751 -0.327791 -0.254557
vn 0.34112 -0.939792 -0.0207104
v -0.235123 -0.234526 -0.316414
vn -0.996647 -0.0773852 0.0265896
v -0.19832 -0.368619 -0.152502
vn -0.312885 -0.602447 0.734276
v -0.0435332 0.0587055 -0.261881
vn 0.0379093 0.842595 -0.537211
v 0.00396796 0.109201 -0.183187
vn -0.0134529 0.880207 -0.4744
v -0.0469745 0.119997 -0.141564
vn -0.0377382 0.875809 -0.48118
v -0.0819901 0.100657 -0.195623
vn -0.669134 0.674721 -0.311465
v -0.0837372 0.149623 -0.106842
vn -0.338086 0.872021 -0.353945
v -0.0564833 0.139159 -0.082441
vn 0.06745 0.969907 -0.233945
v -0.0206427 0.15439 -0.0866343
vn -0.0711265 0.892517 -0.445369
v 0.0668762 0.0719878 -0.259251
vn 0.250895 0.805642 -0.536649
v -0.00413316 0.067213 -0.261969
vn 0.0415909 0.812196 -0.5819
v 0.0296714 0.0860323 -0.203304
vn -0.133404 0.869487 -0.4756
v -0.0326189 0.149522 -0.0485153
vn -0.100507 0.801824 -0.589047
v 0.0677299 0.090923 -0.218811
vn 0.314086 0.830144 -0.460663
v -0.0785331 0.149487 -0.00853613
vn -0.800466 0.259894 -0.540101
v -0.08596 0.213817 -0.0304941
vn -0.546032 0.260325 -0.796291
v -0.164585 0.144422 0.00802098
vn -0.425844 -0.567611 -0.70461
v -0.118938 0.127932 0.0136191
vn -0.75104 0.592516 -0.291315
v -0.183514 0.15451 0.0420718
vn -0.771901 -0.121069 -0.624108
v -0.111605 0.18092 -0.00486991
vn -0.36897 0.100466 -0.923996
v -0.0843739 0.157196 -0.0603539
vn -0.533077 0.770329 -0.349888
v -0.136763 0.163852 -0.0268944
vn -0.337359 0.151242 -0.929148
v -0.00475825 0.219734 -0.0486243
vn -0.0149817 -0.203999 -0.978856
v 0.0185037 0.190568 -0.0252259
vn 0.076187 0.0728078 -0.994432
v -0.037316 0.193065 -0.0196556
vn -0.0170105 0.184608 -0.982665
v -0.0505044 0.238324 -0.0160746
vn -0.196752 0.648659 -0.735208
v -0.169787 0.100209 0.0539037
vn -0.846444 0.23021 -0.480141
v -0.0118429 0.247584 -0.0378216
vn -0.221934 0.747144 -0.626516
v 0.142319 -0.085334 -0.371438
vn 0.373842 0.054171 -0.925909
v 0.107024 -0.0753973 -0.42405
vn 0.705412 -0.12629 -0.697456
v 0.0869921 -0.123538 -0.399519
vn 0.422134 0.495966 -0.758829
v 0.0810356 -0.127106 -0.428359
vn 0.437113 0.497667 -0.749173
v 0.118012 -0.153143 -0.459945
vn 0.411095 0.263539 -0.872667
v 0.0834225 -0.169794 -0.461842
vn 0.270586 -0.14422 -0.951832
v 0.0496068 -0.147533 -0.45978
vn 0.349273 0.225121 -0.909576
v 0.172124 -0.154028 -0.420661
vn 0.475928 0.203893 -0.855523
v 0.128825 -0.321838 -0.1784
vn -0.846846 0.338543 0.41017
v 0.259124 -0.323269 -0.177735
vn 0.678106 0.616792 0.399675
v 0.251587 -0.360718 -0.172678
vn 0.443212 -0.895199 -0.0467193
v 0.197247 -0.34214 -0.134545
vn 0.178282 0.152346 0.972114
v 0.115501 -0.322337 -0.218792
vn -0.563546 -0.403763 0.720688
v 0.196408 -0.24135 -0.244535
vn 0.372105 0.339018 0.864063
v 0.117326 -0.27634 -0.213584
vn 0.0437487 -0.236376 0.970676
v 0.141481 -0.245291 -0.210476
vn 0.493138 -0.685973 0.535029
v 0.222082 -0.259424 -0.270276
vn 0.800913 0.388904 0.455294
v 0.217207 -0.218966 -0.21634
vn 0.384213 -0.753329 0.533737
v 0.14264 -0.359315 -0.16332
vn -0.608014 -0.736111 0.297422
v -0.133256 -0.205906 0.0655327
vn 0.407328 -0.762951 -0.501986
v -0.15873 -0.229242 0.0544123
vn 0.218558 -0.305398 -0.926803
v -0.185247 -0.171587 0.0323813
vn -0.206658 -0.565704 -0.798293
v -0.239438 -0.215743 0.0542527
vn -0.344307 -0.526053 -0.777638
v -0.25213 -0.219644 0.0892046
vn -0.995637 -0.0496371 0.0790188
v -0.219072 -0.313141 0.0792546
vn -0.515804 0.738863 -0.433621
v -0.194084 -0.286298 0.0943012
vn -0.399285 -0.0729309 -0.913921
v -0.132381 -0.309464 0.0850494
vn 0.825604 -0.327773 -0.459286
v -0.24487 -0.162402 0.0292954
vn -0.30399 -0.430293 -0.849963
v -0.224183 -0.289242 0.114562
vn -0.817655 -0.399969 -0.414083
v -0.1162 -0.231346 0.0876233
vn 0.955963 -0.124978 -0.265548
v -0.138204 -0.329067 0.0576827
vn 0.459169 0.878726 -0.130404
v -0.105703 -0.309043 0.15585
vn 0.866683 -0.383335 -0.319242
v -0.113346 -0.242326 0.187223
vn 0.983218 0.054624 0.174062
v -0.0796947 -0.176653 0.134855
vn 0.745764 -0.664042 -0.0537016
v -0.145847 -0.156973 0.000442855
vn -0.474062 -0.869203 -0.140536
v -0.221619 -0.391911 -0.0204221
vn -0.31611 0.315413 -0.894756
v -0.151968 -0.336632 0.0164781
vn -0.0106192 0.812113 -0.583404
v -0.26265 -0.403153 0.04434
vn -0.984714 -0.117005 -0.129028
v -0.234803 -0.427892 0.0327292
vn -0.282057 -0.878119 -0.386459
v -0.158008 -0.406987 -0.023313
vn 0.121917 -0.543463 -0.830532
v -0.130689 -0.363416 -0.00596591
vn 0.376713 0.507671 -0.774827
v -0.222261 -0.326106 0.0279542
vn -0.220954 0.865406 -0.449723
v -0.14905 -0.364979 0.105773
vn 0.973637 0.227963 -0.0079708
v -0.252148 -0.119679 0.0390516
vn -0.990978 -0.0735139 -0.112064
v -0.104456 -0.374313 0.0367118
vn 0.922909 0.381511 -0.0518509
v -0.10901 -0.408163 -0.00752219
vn 0.702225 -0.577958 -0.415745
v -0.241448 -0.0866593 0.00526756
vn -0.698866 0.101967 -0.707947
v -0.105462 -0.178113 0.183736
vn 0.572003 -0.386335 0.723573
v -0.190398 0.418287 0.220482
vn -0.832954 0.498852 -0.239445
v -0.219326 0.363067 0.229698
vn -0.996678 0.0768485 0.0269713
v -0.206891 0.405378 0.289318
vn -0.91566 0.101096 0.389033
v -0.186878 0.42902 0.326772
vn -0.844738 0.408083 0.346244
v -0.159679 0.473286 0.270879
vn -0.282085 0.900461 0.331056
v -0.204086 0.336741 0.292936
vn -0.758344 -0.11576 0.641494
v -0.1653 0.340873 0.319464
vn -0.906697 0.0146172 0.42153
v -0.191782 0.28739 0.268414
vn -0.865786 -0.135756 0.481648
v -0.228097 0.292176 0.166582
vn -0.951409 -0.307354 -0.018835
v -0.205317 0.30901 0.118267
vn -0.665662 -0.0922873 -0.740525
v -0.2003 0.267293 0.176253
vn -0.956703 0.146217 -0.251674
v -0.163658 0.336279 0.0848884
vn -0.489029 0.035466 -0.871546
v -0.151695 0.28935 0.0981735
vn -0.693657 0.137357 -0.707088
v -0.202792 0.324002 0.194012
vn -0.969638 0.12399 -0.210782
v -0.205788 0.233292 0.218698
vn -0.912251 -0.245996 0.327543
v -0.23496 0.281406 0.216242
vn -0.970064 0.190486 -0.150635
v -0.149742 0.368693 0.10112
vn -0.619732 0.664838 -0.41704
v -0.21942 0.330915 0.156223
vn -0.804605 0.576511 -0.142291
v -0.0676436 -0.056079 -0.371392
vn -0.473428 0.852405 -0.22197
v -0.0986748 -0.04781 -0.393618
vn -0.292012 0.934592 0.203142
v -0.0971912 -0.0108663 -0.312262
vn -0.533248 0.438132 -0.723662
v -0.0727081 0.0269761 -0.31817
vn -0.216548 0.731838 -0.646158
v -0.0449467 -0.00478781 -0.339766
vn -0.705116 0.555802 -0.440336
v -0.0700189 -0.0372135 -0.331402
vn -0.793027 0.403504 -0.456391
v -0.060667 -0.0155891 -0.367881
vn -0.912134 0.32898 -0.244506
v -0.129705 -0.0702477 -0.405318
vn -0.511012 0.427426 -0.74577
v -0.18115 -0.0386091 -0.341206
vn -0.216237 0.869538 -0.44401
v -0.129825 -0.0324229 -0.311673
vn -0.10544 0.895581 -0.432224
v -0.0565187 -0.058339 -0.429685
vn -0.3167 0.607212 -0.728694
v -0.214144 0.0634243 0.175989
vn -0.99413 -0.0481761 0.0968728
v -0.226817 0.112668 0.114937
vn -0.958223 -0.0269008 -0.284753
v -0.19277 0.0653382 0.111328
vn -0.900331 0.0577947 -0.431352
v -0.236533 0.0218056 0.145569
vn -0.921096 0.384175 -0.0631727
v -0.180063 -0.0286886 0.290419
vn -0.583483 0.24847 0.773182
v -0.207827 0.00640069 0.248507
vn -0.776877 0.165172 0.607603
v -0.211159 -0.0553235 0.244985
vn -0.847555 0.11138 0.518888
v -0.216282 0.0869578 0.194888
vn -0.692475 0.390294 0.606753
v -0.225151 0.107438 0.0765359
vn -0.614254 -0.620531 -0.487477
v -0.24083 0.0952044 0.168757
vn -0.954934 0.0305156 0.295245
v -0.220838 -0.0700387 0.267286
vn -0.937628 0.18011 0.297345
v 0.225265 0.0816089 0.131147
vn 0.93205 0.361603 0.0229448
v 0.209647 0.108175 0.0911099
vn 0.726094 0.169615 -0.666347
v 0.216796 0.100826 0.159174
vn 0.872373 0.133732 0.470192
v 0.185768 0.132962 0.0964818
vn 0.866576 0.0259228 -0.498372
v 0.177336 0.164006 0.0226233
vn 0.651572 -0.282294 -0.704106
v 0.211026 0.084082 0.0413949
vn 0.833945 0.486444 -0.26059
v 0.168034 0.154846 0.0383449
vn 0.840249 0.269994 -0.470196
v 0.216149 0.0563877 0.222073
vn 0.816849 0.345192 0.462168
v 0.0743379 0.118178 -0.130196
vn 0.322021 0.861944 -0.391607
v 0.084502 0.145503 -0.115443
vn 0.424171 0.663756 -0.616041
v -0.0404411 0.262026 0.475613
vn -0.401252 0.649523 0.645845
v -0.102682 0.206473 0.444208
vn -0.458037 -0.191923 0.867967
v -0.165899 0.393718 0.363863
vn -0.85468 -0.0314422 0.518201
v -0.179665 0.388301 0.301521
vn -0.885312 -0.172124 0.431969
v -0.0342131 0.193906 0.465451
vn -0.0727716 -0.442199 0.89396
v 0.046666 0.200316 0.46129
vn 0.0834884 -0.351627 0.93241
v 0.00275094 0.0944229 0.384857
vn 0.0660146 -0.75579 0.651478
v 0.132746 0.097412 0.35185
vn 0.805844 -0.521079 0.281234
v 0.189611 0.387872 0.2296
vn 0.887942 0.412878 -0.202708
v 0.214653 0.353572 0.256221
vn 0.803677 0.0455127 0.593322
v 0.207729 0.320178 0.221283
vn 0.936832 0.170056 0.305657
v 0.182886 0.354097 0.260378
vn 0.930998 0.148946 0.333254
v 0.186237 0.354496 0.195231
vn 0.929198 0.277669 -0.243909
v -0.157617 0.467584 0.208819
vn -0.518123 0.807599 -0.281659
v -0.099115 0.485611 0.171525
vn -0.360468 0.755344 -0.547283
v -0.113776 0.444029 0.159664
vn -0.355798 0.874828 -0.328759
v -0.0605756 0.469377 0.17624
vn -0.0700248 0.899102 -0.432101
v -0.15846 0.430553 0.180722
vn -0.599442 0.791211 -0.121056
v 0.201306 0.341847 0.12897
vn 0.927236 0.265277 -0.264313
v 0.171171 0.351021 0.110282
vn 0.831743 0.262118 -0.489386
v 0.141682 0.326601 0.0755538
vn 0.6543 0.56217 -0.505822
v 0.131219 0.371331 0.0733631
vn 0.465176 0.387873 -0.795718
v -0.112722 0.391485 0.116931
vn -0.411719 0.65869 -0.629774
v -0.113648 0.438036 0.107532
vn -0.486767 0.317182 -0.813912
v -0.0770409 0.398261 0.0800052
vn -0.27932 0.625755 -0.728293
v 0.0135055 0.409861 0.089227
vn -0.0622777 0.585282 -0.808434
v -0.0683373 0.449597 0.11254
vn -0.103592 0.816451 -0.568046
v -0.170041 0.410197 0.13336
vn -0.588061 0.225472 -0.776754
v 0.00034426 0.446569 0.0928164
vn -0.0743883 0.546858 -0.833914
v 0.162974 0.468834 0.283234
vn 0.568647 0.810334 0.14142
v 0.195506 0.412847 0.277995
vn 0.986149 0.0883464 0.140377
v 0.152867 0.434547 0.2459
vn 0.809067 0.546985 -0.214983
v 0.177616 0.36523 0.288554
vn 0.906459 0.117945 0.405489
v 0.220798 -0.0152982 0.231325
vn 0.864943 0.268597 0.423946
v 0.193637 0.0159108 0.270998
vn 0.660524 0.373456 0.651337
v -0.222574 0.318181 0.250101
vn -0.987138 0.0380491 0.155274
v -0.224994 0.268047 0.258247
vn -0.683753 -0.384904 0.619944
v -0.202909 0.386222 0.17883
vn -0.83933 0.310645 -0.446121
v -0.164716 0.363452 0.141594
vn -0.85044 0.296139 -0.434802
v -0.159705 -0.152885 -0.069539
vn -0.837744 -0.519428 0.168462
v -0.116015 -0.19086 -0.0757278
vn -0.466649 -0.821378 0.327989
v -0.17397 0.143323 0.265631
vn -0.902537 -0.393378 0.17516
v -0.165668 0.16469 0.304608
vn -0.810566 -0.18544 0.555513
v -0.10831 0.0934485 0.36211
vn -0.703223 -0.490626 0.514552
v 0.22138 -0.146366 -0.322806
vn 0.803201 0.143396 -0.578192
v 0.197849 -0.181283 -0.37713
vn 0.684535 -0.0015054 -0.728979
v 0.246829 -0.0764918 -0.309386
vn 0.962576 0.0442002 -0.267384
v 0.275468 -0.0913006 0.0683063
vn 0.985428 -0.0369746 -0.166027
v 0.255803 -0.192985 0.074999
vn 0.995047 -0.0969501 -0.0219644
v 0.140339 -0.0244309 -0.285578
vn 0.497976 0.708828 -0.499583
v 0.0726547 0.0304624 -0.285248
vn 0.628182 0.554827 -0.545485
v -0.123999 0.0254379 -0.233598
vn -0.742393 0.566036 -0.358408
v -0.0868513 0.0637416 -0.258227
vn -0.533922 0.686878 -0.493079
v 0.103547 0.123548 -0.0861239
vn 0.730533 0.570201 -0.375756
v 0.0607114 0.190244 -0.0537593
vn -0.132906 0.696222 -0.705416
v 0.120251 0.147634 -0.0301566
vn 0.67546 0.604519 -0.422268
v 0.0315637 0.158135 -0.0724872
vn -0.171442 0.88202 -0.438918
v 0.0780446 0.115425 -0.173364
vn 0.539609 0.77059 -0.339136
v 0.110912 0.0585436 -0.192921
vn 0.617449 0.700737 -0.357385
v -0.10244 0.100471 -0.0635686
vn -0.761385 0.540868 -0.357427
v -0.15945 0.0584953 -0.0460856
vn -0.786857 0.558546 -0.262456
v -0.113151 -0.0659851 -0.43266
vn -0.438092 0.432699 -0.787939
v -0.112027 -0.122546 -0.411187
vn -0.589103 0.242983 -0.77066
v -0.195417 -0.103698 -0.36835
vn -0.693531 0.223372 -0.684923
v -0.0741487 -0.132336 -0.460338
vn -0.409529 0.366 -0.835661
v -0.120071 0.284526 0.0310894
vn -0.506419 0.357914 -0.784498
v -0.0910325 0.234453 0.0160028
vn -0.77989 0.136388 -0.610877
v -0.0756466 0.291308 0.00312843
vn -0.251435 0.266001 -0.930604
v 0.0513677 0.248076 -0.0289023
vn -0.176826 0.718217 -0.672977
v -0.237532 -0.37516 0.19227
vn -0.944339 -0.326862 -0.0372009
v -0.203086 -0.395805 0.275774
vn -0.619316 -0.398435 0.676534
v -0.233629 -0.371262 0.295692
vn -0.527977 -0.632413 0.566828
v -0.188275 -0.345138 0.311741
vn -0.202118 -0.162939 0.965712
v -0.220588 -0.396728 0.218357
vn -0.995383 0.0068089 0.0957431
v -0.251124 -0.337684 0.286161
vn -0.442037 0.661634 0.605677
v -0.230397 -0.409092 0.156494
vn -0.863804 0.496458 0.0858593
v -0.137488 -0.401323 0.296344
vn 0.618172 -0.337612 0.709846
v -0.225102 -0.425086 0.278576
vn -0.639137 -0.0465669 0.767682
v 0.163774 0.422225 0.187764
vn 0.787224 0.586384 -0.190872
v 0.164497 0.378976 0.1567
vn 0.823614 0.424118 -0.376542
v 0.148943 0.404804 0.122492
vn 0.66875 0.541827 -0.509115
v 0.142929 0.43732 0.140545
vn 0.491285 0.834083 -0.250885
v 0.188524 0.408899 0.172452
vn 0.90144 0.273231 -0.335783
v 0.0793445 0.442502 0.105095
vn 0.232455 0.731357 -0.641156
v 0.0903169 0.41124 0.106118
vn 0.281937 0.662556 -0.693924
v 0.133439 0.475168 0.204972
vn 0.609051 0.778173 -0.153309
v 0.0389846 0.483768 0.225944
vn 0.0901915 0.995899 -0.00707031
v 0.0872808 0.476018 0.270214
vn 0.208382 0.933911 0.290493
v 0.157608 0.415043 0.294667
vn 0.94427 -0.0501368 0.32533
v 0.173048 0.417068 0.327744
vn 0.882214 0.113448 0.456977
v -0.0476561 0.488363 0.253394
vn -0.105272 0.958205 0.266009
v -0.0455362 0.472869 0.223488
vn -0.150362 0.983731 0.0983135
v -0.104644 0.483634 0.266683
vn -0.160033 0.979541 0.122016
v -0.153225 0.454555 0.248636
vn -0.580104 0.806223 0.116116
v -0.112202 0.449016 0.299435
vn -0.246212 0.848984 0.467553
v 0.130772 0.0833659 -0.15177
vn 0.523722 0.753151 -0.398094
v 0.0766514 0.387758 0.0518622
vn 0.291757 0.485932 -0.823862
v 0.106787 0.32088 0.0683828
vn 0.487825 0.307797 -0.816877
v -0.163868 -0.0794652 0.271001
vn -0.40164 -0.734991 0.546328
v -0.202478 -0.111262 0.268977
vn -0.21189 -0.557432 0.802728
v -0.224204 -0.0998974 0.221196
vn -0.723596 -0.516372 0.458004
v 0.150538 -0.264219 -0.407554
vn -0.115121 0.351953 -0.928911
v 0.198818 -0.258329 -0.447428
vn -0.0878854 0.152085 -0.984452
v 0.13494 -0.287555 -0.413288
vn 0.0734327 -0.753146 -0.653742
v 0.219841 -0.241301 -0.409459
vn 0.602107 0.487309 -0.632453
v 0.102543 -0.223161 -0.43294
vn 0.448236 -0.200333 -0.871178
v -0.199726 -0.338511 0.133712
vn -0.88931 -0.226655 -0.397184
v -0.253429 -0.360736 0.0287846
vn -0.859032 0.495274 0.129487
v -0.199084 -0.341197 0.0727512
vn -0.868107 0.10133 0.485925
v -0.228472 -0.34323 0.156924
vn -0.852226 -0.0963013 -0.514234
v -0.247559 -0.38839 0.0967963
vn -0.713456 0.617634 0.33092
v -0.142915 -0.139786 0.217072
vn -0.384646 -0.420341 0.821803
v -0.0848359 -0.174046 0.239979
vn -0.318533 -0.926981 0.198099
v -0.0378129 -0.183269 0.164228
vn -0.114949 -0.993063 -0.0247345
v -0.086004 0.12305 -0.150088
vn -0.489557 0.804809 -0.335583
v -0.10729 0.0868153 -0.109768
vn -0.798611 0.576394 -0.173175
v -0.127284 0.0694622 -0.154109
vn -0.744286 0.585947 -0.320475
v -0.143351 0.0199316 -0.175625
vn -0.798629 0.479724 -0.363397
v 0.158641 0.0908973 -0.0648351
vn 0.743407 0.569984 -0.349949
v 0.011718 0.294145 0.00201435
vn -0.0641612 0.232626 -0.970447
v -0.0198933 0.255276 0.00201706
vn -0.110774 0.541612 -0.833298
v -0.144312 -0.00559123 -0.221665
vn -0.587088 0.799954 -0.124099
v 0.105576 0.453141 0.181849
vn 0.461121 0.788659 -0.406675
v -0.0816288 0.322807 0.0573497
vn -0.499531 0.617058 -0.608036
v -0.113715 0.337165 0.085172
vn -0.43279 -0.101228 -0.895793
v -0.106691 0.363506 0.0580166
vn -0.421084 0.334301 -0.843167
v -0.0177329 0.030699 -0.322605
vn -0.320569 0.925055 0.203736
v 0.0213173 0.0326032 -0.376522
vn 0.704919 0.70188 -0.102246
v -0.0272764 0.0698675 -0.362053
vn -0.0729737 0.994043 0.0809555
v -0.11946 -0.472613 0.199473
vn 0.806768 -0.590608 -0.0175432
v -0.125743 -0.391694 0.240296
vn 0.993311 -0.112004 -0.0280708
v 0.0288535 0.452974 0.1189
vn 0.0499033 0.881981 -0.468636
v 0.243911 -0.0789969 0.25824
vn 0.824433 -0.355622 0.440277
v 0.244642 -0.0253938 0.253451
vn 0.872262 0.42127 0.248376
v 0.261329 -0.10255 -0.259615
vn 0.852398 0.313842 -0.418237
v -0.223395 -0.474753 0.171911
vn -0.181727 -0.952663 -0.24374
v -0.257214 -0.441089 0.120209
vn -0.985619 -0.0991864 0.136808
v -0.24112 -0.304566 -0.229821
vn -0.59205 0.723097 0.35582
v -0.268405 -0.324552 -0.205321
vn -0.750763 0.484024 0.449528
v -0.178783 -0.457335 0.285263
vn -0.0145106 -0.350778 0.936346
v -0.140054 -0.486331 0.269058
vn 0.29923 -0.886291 0.353481
v -0.205978 -0.210214 -0.420545
vn -0.583364 0.539609 -0.607049
v -0.238763 -0.183601 -0.351254
vn -0.846844 0.280271 -0.451999
v -0.0825075 0.465581 0.308119
vn -0.17446 0.811623 0.557523
v 0.0207804 0.430603 0.36643
vn -0.00184677 0.855052 0.518539
v -0.152392 0.305875 0.356714
vn -0.807087 0.106234 0.580797
v 0.114407 0.307732 0.0212351
vn 0.492367 0.358782 -0.793001
v 0.117974 -0.175696 -0.433735
vn 0.530262 -0.353723 -0.770521
v 0.252884 -0.280521 0.0872161
vn 0.971595 -0.192652 -0.137434
v 0.236467 -0.263254 0.0420109
vn 0.432312 -0.242566 -0.868486
v 0.00435572 -0.144776 0.37008
vn 0.0416157 -0.0556277 0.997584
v 0.0377413 -0.148389 0.33682
vn 0.664802 -0.266422 0.697895
v -0.24004 -0.456693 0.213413
vn -0.9955 -0.00610937 0.0945606
v 0.0827888 0.263783 0.00209881
vn 0.151102 0.401705 -0.903217
v -0.0349154 0.495214 0.163436
vn 0.0304294 0.959134 -0.28131
v -0.0205576 0.341692 0.0394352
vn -0.0406382 0.539894 -0.840751
v -0.0177782 0.3807 0.0394403
vn -0.0968134 0.388691 -0.916268
v -0.12901 -0.36552 0.174937
vn 0.996385 0.0342256 -0.0777491
v -0.100934 -0.417801 0.124701
vn 0.942937 0.307244 0.128341
v -0.0175679 -0.175008 0.292755
vn -0.384957 -0.843159 0.375355
v 0.0152018 -0.194828 0.262655
vn -0.337768 -0.93661 -0.0931348
v 0.0360192 -0.208199 0.303891
vn 0.456916 -0.889372 0.0156909
v 0.12295 -0.292765 0.160315
vn -0.895102 -0.126995 0.427392
v 0.245457 -0.439556 0.200261
vn 0.617228 0.621031 0.483063
v 0.250236 -0.474933 0.207806
vn 0.696565 -0.701381 0.151201
v 0.169957 -0.0215834 -0.231606
vn 0.44123 0.892903 -0.0896635
v -0.0636027 -0.330688 -0.242448
vn -0.313758 -0.844594 0.433839
v 0.195114 -0.0584194 -0.354212
vn 0.386252 0.632341 -0.671531
v -0.138576 0.424192 0.365449
vn -0.247109 0.812191 0.528472
v -0.0921317 0.374855 0.425317
vn -0.0105181 0.627958 0.778176
v -0.0449975 0.407095 0.395321
vn -0.0197885 0.718814 0.694921
v 0.00911041 0.481965 0.289968
vn 0.0310403 0.903456 0.427555
v 0.0713491 0.429767 0.31782
vn 0.143561 0.816632 0.559019
v 0.0261201 0.358034 0.427782
vn -0.0868965 0.477052 0.874569
v 0.0910293 0.486511 0.173508
vn 0.316535 0.800042 -0.509646
v 0.0358443 0.396468 0.398136
vn 0.0925655 0.764886 0.63748
v 0.120678 0.386582 0.395418
vn 0.38758 0.690723 0.610479
v 0.108917 0.444198 0.331749
vn 0.161143 0.814555 0.557255
v -0.00924676 0.322132 0.00434451
vn -0.0163426 0.641128 -0.76726
v -0.135283 0.221656 0.41918
vn -0.874789 -0.107672 0.472388
v -0.162942 0.423052 0.314036
vn -0.26928 0.798596 0.538268
v -0.162387 0.28457 0.0507063
vn -0.695524 0.670283 -0.258781
v 0.21251 -0.0925945 0.245445
vn -0.071835 -0.61395 0.786069
v 0.175582 -0.103704 0.239475
vn 0.209509 -0.558091 0.802895
v -0.187803 -0.134161 0.203496
vn -0.435959 -0.0540724 0.898341
v -0.0145342 -0.179301 0.338999
vn -0.835659 -0.380168 0.396416
v 0.027624 -0.189892 0.348288
vn 0.22387 -0.587992 0.777269
v 0.212603 -0.197451 0.187715
vn 0.524138 -0.169186 0.834659
v 0.138578 -0.184573 0.184984
vn -0.272842 -0.365066 0.890104
v -0.182467 -0.232096 0.227227
vn -0.269399 0.0866833 0.959119
v 0.173301 -0.237403 0.202618
vn -0.154267 0.0157153 0.987904
v -0.158223 -0.260352 0.231928
vn 0.296651 0.33043 0.895999
v 0.164595 -0.391842 0.177793
vn -0.370403 -0.0172045 0.928712
v -0.207395 -0.288181 0.234035
vn -0.402062 0.694782 0.596343
v -0.119313 -0.293086 0.238401
vn 0.615363 0.599908 0.511311
v -0.144993 -0.331534 0.308884
vn 0.0625935 0.713796 0.697551
v 0.216546 -0.325728 0.177185
vn 0.582969 -0.100954 0.806198
v -0.0988064 -0.332034 0.27872
vn 0.900886 0.364744 0.235299
v -0.10199 -0.371892 0.298874
vn 0.75061 -0.345711 0.563089
v 0.22797 -0.41 0.167007
vn 0.454823 0.339989 0.82313
v 0.180346 -0.423686 0.194664
vn -0.168971 0.698802 0.695071
v 0.130648 -0.439345 0.172187
vn -0.696791 0.496818 0.517353
v 0.194559 -0.448181 0.236701
vn -0.122893 0.542995 0.830695
v 0.155087 -0.472267 0.23662
vn -0.566517 -0.110596 0.816595
v 0.197193 -0.0466733 -0.170553
vn 0.507779 0.80701 0.301488
v 0.000893035 0.0642984 0.343448
vn 0.0214986 -0.419011 0.907726
v 0.00981593 0.0199543 0.348817
vn 0.07595 0.179734 0.980779
v 0.0382775 -0.0985391 0.356461
vn 0.0313802 -0.0369183 0.998825
v 0.252711 -0.0905162 0.21568
vn 0.940587 -0.146082 0.306522
v -0.101202 -0.348626 0.230564
vn 0.99678 -0.0293456 -0.0746238
v 0.221737 -0.483548 0.242889
vn 0.318139 -0.86011 0.398746
v 0.0645718 -0.169791 0.300076
vn 0.620582 -0.703409 0.346545
v 0.211955 -0.0113082 -0.00694767
vn 0.974102 0.110186 -0.197444
v 0.239304 -0.0456313 0.0345932
vn 0.809243 0.17082 -0.562091
v 0.178657 -0.185903 -0.135716
vn 0.658324 -0.659626 0.362633
v 0.270034 -0.448879 0.129754
vn 0.994337 0.0870317 -0.0609921
v -0.217964 -0.030066 -0.28248
vn -0.389066 0.910247 -0.141698
v 0.188121 -0.157368 0.0208224
vn 0.244136 -0.411985 -0.877876
v 0.015223 -0.192732 -0.475442
vn 0.151626 -0.0989232 -0.983475
v 0.228126 0.0509636 0.04079
vn 0.891214 0.173377 -0.419139
v 0.113446 0.048386 -0.229193
vn 0.615502 0.648994 -0.447172
v 0.208792 -0.123318 0.00332735
vn 0.774774 -0.576147 -0.260347
v 0.251989 -0.122432 0.0233193
vn 0.660579 -0.0329444 -0.750033
v -0.254121 -0.284825 -0.28359
vn -0.964394 0.262825 0.029468
v -0.219554 -0.259933 -0.415978
vn -0.887932 -0.148619 -0.435304
v -0.223605 -0.489963 0.243136
vn -0.551781 -0.805842 0.214843
v -0.164727 0.00981922 -0.119079
vn -0.926285 0.308972 -0.215713
v -0.0116567 -0.115739 0.357684
vn -0.380516 -0.500195 0.777826
v -0.23032 -0.211031 0.192272
vn -0.819327 0.0911184 0.566039
v -0.23526 -0.30369 0.190985
vn -0.955467 0.160347 0.247735
v -0.244138 -0.241604 0.139879
vn -0.989816 0.0964367 0.104707
v -0.241861 -0.274351 -0.356132
vn -0.979986 -0.119648 -0.159097
v -0.226322 -0.298758 -0.370237
vn -0.441586 -0.812305 -0.381001
v -0.251403 -0.335789 -0.256355
vn -0.579616 -0.737143 -0.34737
v -0.162847 -0.0330715 -0.132713
vn -0.912332 0.177746 0.36886
v -0.193002 -0.0497023 -0.158768
vn -0.648286 0.343366 0.679577
v -0.222417 -0.120674 -0.163294
vn -0.572758 -0.183958 0.798817
v -0.167209 -0.168295 -0.155105
vn -0.675475 -0.366127 0.640066
v -0.213751 -0.135492 0.180325
vn -0.830424 -0.279528 0.481933
v -0.0392211 -0.27231 -0.175033
vn -0.334837 -0.625192 0.704996
v -0.102692 -0.255162 -0.224453
vn -0.501477 -0.636645 0.585836
v -0.251191 -0.353491 -0.18056
vn -0.488887 -0.853216 0.181692
v 0.0403815 0.332387 0.0417046
vn 0.0267888 0.468876 -0.882858
v 0.0707755 0.311529 -0.00436123
vn 0.147172 0.509064 -0.848053
v 0.145387 0.0201404 -0.205224
vn 0.780635 0.532515 -0.327164
v -0.0321363 0.0371185 -0.383692
vn -0.492366 0.453856 -0.742691
v -0.0233204 -0.0649856 -0.446389
vn -0.169938 0.444575 -0.879474
v 0.211732 -0.108301 -0.366492
vn 0.697399 0.24553 -0.673313
v -0.0521966 -0.15211 -0.478755
vn -0.0424538 0.225293 -0.973366
v 0.249843 -0.186852 -0.33761
vn 0.867123 0.0861613 -0.490586
v 0.226026 -0.203607 -0.359976
vn 0.757373 0.396 -0.519202
v -0.232387 0.00607101 0.218364
vn -0.897573 0.286639 0.334963
v -0.200069 0.0194467 0.0687473
vn -0.831739 0.442519 -0.33524
v -0.148058 0.0517728 -0.093881
vn -0.830973 0.507983 -0.226797
v -0.258743 -0.0752165 0.152438
vn -0.989446 -0.049628 0.136135
v -0.185195 0.00511872 -0.034083
vn -0.930657 0.273052 -0.243557
v -0.244115 -0.0326489 0.0986617
vn -0.931919 0.279111 -0.231568
v -0.200493 -0.0327231 0.0191552
vn -0.7599 0.514256 -0.39761
v -0.250838 -0.0395172 0.0510077
vn -0.833965 0.507794 -0.215982
v -0.256794 -0.0803571 0.0896758
vn -0.990568 0.0464353 0.128916
v -0.240555 -0.111555 0.137043
vn -0.977649 -0.11384 0.176756
v -0.17713 -0.0622406 -0.0991303
vn -0.97283 -0.0564092 -0.224546
v -0.184379 -0.101161 -0.0508349
vn -0.963445 -0.178147 -0.200095
v -0.205714 -0.0846568 -0.0170477
vn -0.695472 -0.157562 -0.701066
v -0.212418 -0.0315467 -0.226282
vn -0.525676 0.822008 0.219014
v -0.239762 -0.105444 -0.193797
vn -0.905056 0.199558 0.375566
v -0.242867 -0.0679164 -0.245035
vn -0.971785 0.235856 0.00245856
v -0.229785 -0.0737302 -0.31921
vn -0.869964 0.25617 -0.421355
v -0.242704 -0.163671 -0.205689
vn -0.815629 -0.373324 0.442017
v -0.21955 -0.14403 -0.339299
vn -0.76868 0.172035 -0.616064
v -0.254434 -0.191464 -0.318389
vn -0.979084 -0.175372 -0.103148
v 0.17194 0.142622 0.257185
vn 0.918312 -0.255365 0.302476
v 0.171794 0.0982485 0.247045
vn 0.792664 0.299855 0.53082
v 0.254087 0.000959335 0.178235
vn 0.945045 0.263438 0.193626
v 0.201264 0.0115038 -0.0688193
vn 0.897102 0.326402 -0.297773
v 0.265317 -0.0550611 0.137189
vn 0.989505 0.136742 0.0467015
v 0.25671 -0.00533603 0.0724112
vn 0.920287 0.221949 -0.322196
v 0.190798 -0.0397806 -0.142265
vn 0.955056 0.274276 -0.112427
v 0.21769 -0.065367 -0.033053
vn 0.981231 -0.0645873 -0.1817
v 0.27352 -0.101023 0.102798
vn 0.996776 0.039894 0.0696075
v 0.204231 -0.109761 -0.12125
vn 0.9934 -0.0963964 0.0621565
v 0.192708 -0.143782 -0.0894064
vn 0.827427 -0.55856 0.0581045
v 0.246409 -0.248965 0.147692
vn 0.922498 -0.0976449 0.373449
v 0.24718 -0.0425995 -0.20909
vn 0.644247 0.764743 0.0107128
v 0.24524 -0.0801824 -0.153147
vn 0.671883 0.00114871 0.740656
v 0.222804 -0.0347989 -0.298128
vn 0.481054 0.846005 -0.229918
v 0.264469 -0.0761124 -0.207386
vn 0.962742 0.250759 0.101234
v 0.257712 -0.115222 -0.166813
vn 0.83556 -0.126461 0.534646
v 0.27372 -0.148704 -0.246832
vn 0.992526 -0.102793 0.065768
v 0.232502 -0.157017 -0.162317
vn 0.524614 -0.552034 0.648104
v 0.246055 -0.361564 0.121502
vn 0.961815 0.0344807 -0.271521
v 0.230297 -0.321956 0.0750462
vn 0.794676 -0.287826 -0.534459
v 0.258001 -0.18476 -0.219124
vn 0.837591 -0.383062 0.389493
v 0.246004 -0.253911 -0.334328
vn 0.989998 -0.117184 -0.0785625
v 0.254967 -0.310983 -0.279179
vn 0.960645 -0.148733 -0.234607
v 0.228772 -0.304803 -0.345597
vn 0.554321 -0.73865 -0.383568
v 0.0561143 -0.191872 0.206906
vn 0.303002 -0.948673 0.0906064
v 0.0257981 -0.192837 0.102844
vn -0.0824388 -0.99625 0.0262668
v -0.183712 -0.447546 0.108155
vn -0.0197868 -0.951809 -0.306053
v -0.14585 -0.469766 0.161392
vn 0.0764962 -0.964117 -0.254216
v 0.0863921 -0.191192 0.0112794
vn 0.059753 -0.995525 0.0732096
v -0.0727892 -0.173881 0.0707256
vn -0.0385522 -0.998247 0.0449132
v -0.00892745 -0.185446 0.0436381
vn -0.109368 -0.983806 0.141998
v 0.136209 -0.183546 -0.00627455
vn 0.506078 -0.862156 -0.0239226
v 0.0958171 -0.210365 -0.0770176
vn 0.196711 -0.952883 0.230907
v -0.115666 -0.439732 0.0647455
vn 0.496536 -0.830155 -0.253562
v -0.0813275 -0.18065 0.0156468
vn -0.178598 -0.972914 0.146768
v -0.0115899 -0.20528 -0.0428748
vn -0.0628366 -0.944631 0.322061
v 0.187593 -0.371845 -0.150481
vn 0.0217148 -0.999764 0.00111975
v 0.198746 -0.343141 -0.225446
vn 0.0408359 -0.955875 -0.290921
v 0.131172 -0.346774 -0.226573
vn -0.186539 -0.95204 -0.242533
v 0.155796 -0.30488 -0.360526
vn 0.00345343 -0.963932 -0.266126
v -0.0834929 -0.243296 -0.163178
vn -0.351264 -0.849124 0.394465
v 0.0693063 -0.334641 -0.249308
vn 0.162197 -0.964924 0.206432
v 0.0002803 -0.337963 -0.207527
vn 0.211386 -0.764869 0.608515
v 0.0236312 -0.291033 -0.391354
vn 0.0061857 -0.950374 -0.311049
v -0.0460936 -0.319567 -0.313234
vn 0.0030396 -0.961839 -0.273599
v -0.18697 -0.351191 -0.215537
vn -0.0185711 -0.957282 -0.28856
v 0.00713995 -0.278725 -0.455358
vn 0.179491 -0.753483 -0.632492
v -0.183409 -0.283984 -0.429954
vn -0.01119 -0.938966 -0.343828
v 0.145175 -0.194487 -0.0952873
vn 0.549916 -0.784619 0.286296
v 0.0995762 -0.248764 -0.149342
vn 0.258149 -0.81775 0.514436
v -0.133077 -0.213013 -0.156528
vn -0.514701 -0.793089 0.32572
v 0.111153 0.0697911 0.316423
vn 0.646239 -0.338387 0.684009
v 0.0877441 -0.101068 0.352703
vn 0.531498 -0.293396 0.794625
v 0.149162 -0.113215 0.271414
vn 0.725965 -0.473044 0.499203
v 0.117408 -0.161417 0.238247
vn 0.449128 -0.806443 0.384621
v 0.165532 -0.0452542 0.297928
vn 0.675847 -0.0894038 0.7316
v 0.231742 -0.143373 0.206489
vn 0.522295 -0.521071 0.67505
v 0.028407 -0.259217 -0.141605
vn -0.0364464 -0.776029 0.629644
v -0.136699 -0.0733943 0.346237
vn -0.650392 -0.364509 0.666426
v -0.142419 0.114102 0.276132
vn -0.872249 -0.452887 0.184592
v -0.100646 -0.137626 0.303497
vn -0.577015 -0.671119 0.46546
v -0.14219 0.0872834 0.246406
vn -0.871242 0.173226 0.459271
v -0.103306 0.0737683 0.333771
vn -0.53966 -0.362102 0.760032
v -0.0750823 -0.0999939 0.355633
vn -0.295187 -0.133841 0.946019
v -0.069058 0.10988 0.389336
vn -0.159248 -0.365767 0.916981
v -0.0647934 0.0352233 0.336523
vn -0.139554 0.0636259 0.988168
v -0.18193 0.0755042 0.21345
vn -0.485646 0.607374 0.628685
v -0.165735 0.050373 0.26709
vn -0.602145 0.519146 0.606555
v -0.135365 0.0228703 0.313001
vn -0.556471 0.0969714 0.825189
v -0.0421687 -0.0105752 0.360514
vn -0.0306084 0.0829182 0.996086
v -0.100256 -0.0206498 0.342782
vn -0.362694 0.143568 0.920783
v 0.143071 0.0473349 0.307842
vn 0.437537 0.130178 0.889727
v 0.218457 -0.0419108 0.283092
vn 0.321349 0.13396 0.937438
v 0.0563688 -0.0442279 0.360476
vn 0.104799 0.118557 0.987401
v 0.107514 -0.012138 0.335605
vn 0.385872 0.228857 0.893715
f 7//7 8//8 9//9
f 9//9 10//10 7//7
f 11//11 12//12 13//13
f 14//14 15//15 16//16
f 17//17 18//18 15//15
f 19//19 15//15 14//14
f 16//16 15//15 21//21
f 19//19 22//22 15//15
f 23//23 15//15 22//22
f 18//18 20//20 21//21
f 24//24 6//6 25//25
f 24//24 26//26 27//27
f 7//7 10//10 28//28
f 30//30 29//29 10//10
f 10//10 31//31 28//28
f 25//25 6//6 7//7
f 26//26 24//24 25//25
f 29//29 32//32 31//31
f 29//29 30//30 32//32
f 5//5 24//24 27//27
f 29//29 31//31 10//10
f 33//33 6//6 5//5
f 6//6 24//24 5//5
f 10//10 9//9 30//30
f 11//11 8//8 12//12
f 35//35 36//36 1//1
f 36//36 37//37 1//1
f 38//38 1//1 39//39
f 2//2 1//1 38//38
f 40//40 41//41 42//42
f 43//43 44//44 41//41
f 46//46 47//47 48//48
f 41//41 48//48 47//47
f 41//41 40//40 43//43
f 51//51 52//52 53//53
f 50//50 48//48 54//54
f 47//47 42//42 41//41
f 40//40 51//51 55//55
f 54//54 48//48 56//56
f 43//43 40//40 49//49
f 53//53 55//55 51//51
f 57//57 54//54 56//56
f 50//50 46//46 48//48
f 57//57 59//59 60//60
f 47//47 46//46 51//51
f 61//61 52//52 51//51
f 62//62 41//41 44//44
f 48//48 58//58 56//56
f 57//57 60//60 54//54
f 63//63 64//64 65//65
f 66//66 63//63 65//65
f 67//67 66//66 65//65
f 69//69 68//68 70//70
f 67//67 65//65 71//71
f 1//1 72//72 73//73
f 74//74 63//63 70//70
f 75//75 68//68 69//69
f 72//72 37//37 68//68
f 76//76 74//74 68//68
f 67//67 77//77 66//66
f 72//72 68//68 75//75
f 65//65 78//78 71//71
f 73//73 72//72 75//75
f 69//69 70//70 79//79
f 63//63 66//66 80//80
f 68//68 74//74 70//70
f 73//73 39//39 1//1
f 82//82 84//84 85//85
f 84//84 82//82 83//83
f 87//87 88//88 89//89
f 90//90 84//84 83//83
f 87//87 89//89 83//83
f 91//91 92//92 93//93
f 92//92 91//91 94//94
f 91//91 82//82 85//85
f 91//91 85//85 94//94
f 88//88 87//87 95//95
f 96//96 97//97 98//98
f 97//97 99//99 98//98
f 100//100 101//101 99//99
f 102//102 100//100 103//103
f 100//100 104//104 103//103
f 99//99 97//97 100//100
f 97//97 104//104 100//100
f 106//106 107//107 108//108
f 109//109 107//107 106//106
f 106//106 108//108 110//110
f 111//111 112//112 113//113
f 115//115 108//108 111//111
f 109//109 116//116 107//107
f 112//112 111//111 114//114
f 114//114 111//111 108//108
f 107//107 114//114 108//108
f 110//110 118//118 106//106
f 119//119 112//112 117//117
f 116//116 109//109 120//120
f 121//121 122//122 123//123
f 124//124 122//122 121//121
f 127//127 126//126 125//125
f 128//128 122//122 124//124
f 122//122 128//128 129//129
f 125//125 126//126 123//123
f 126//126 127//127 130//130
f 133//133 132//132 134//134
f 132//132 135//135 134//134
f 136//136 137//137 138//138
f 139//139 140//140 141//141
f 140//140 133//133 141//141
f 133//133 140//140 132//132
f 138//138 137//137 142//142
f 138//138 134//134 136//136
f 142//142 144//144 145//145
f 146//146 147//147 148//148
f 149//149 147//147 146//146
f 149//149 144//144 147//147
f 150//150 144//144 142//142
f 149//149 146//146 151//151
f 144//144 149//149 145//145
f 152//152 153//153 154//154
f 155//155 154//154 145//145
f 155//155 152//152 154//154
f 155//155 157//157 152//152
f 156//156 148//148 147//147
f 160//160 161//161 159//159
f 160//160 162//162 161//161
f 159//159 19//19 158//158
f 159//159 158//158 160//160
f 161//161 163//163 164//164
f 165//165 162//162 160//160
f 4//4 166//166 3//3
f 170//170 166//166 4//4
f 171//171 172//172 4//4
f 4//4 3//3 167//167
f 171//171 174//174 175//175
f 167//167 3//3 169//169
f 166//166 170//170 176//176
f 173//173 172//172 171//171
f 171//171 175//175 173//173
f 174//174 4//4 167//167
f 168//168 167//167 169//169
f 177//177 178//178 179//179
f 182//182 183//183 184//184
f 178//178 185//185 179//179
f 186//186 180//180 183//183
f 187//187 178//178 177//177
f 187//187 184//184 178//178
f 183//183 180//180 184//184
f 189//189 187//187 190//190
f 181//181 180//180 186//186
f 179//179 192//192 177//177
f 184//184 187//187 189//189
f 185//185 180//180 181//181
f 188//188 194//194 193//193
f 195//195 193//193 196//196
f 178//178 180//180 185//185
f 193//193 198//198 197//197
f 199//199 188//188 193//193
f 182//182 188//188 199//199
f 177//177 191//191 187//187
f 200//200 188//188 184//184
f 202//202 203//203 198//198
f 182//182 186//186 183//183
f 196//196 193//193 197//197
f 184//184 188//188 182//182
f 194//194 188//188 202//202
f 194//194 198//198 193//193
f 178//178 184//184 180//180
f 201//201 204//204 185//185
f 190//190 191//191 205//205
f 189//189 200//200 184//184
f 198//198 203//203 197//197
f 202//202 198//198 194//194
f 190//190 187//187 191//191
f 206//206 207//207 208//208
f 211//211 213//213 212//212
f 90//90 214//214 215//215
f 90//90 216//216 214//214
f 215//215 217//217 218//218
f 219//219 214//214 216//216
f 216//216 221//221 219//219
f 222//222 217//217 215//215
f 221//221 216//216 220//220
f 90//90 215//215 218//218
f 214//214 223//223 215//215
f 226//226 227//227 228//228
f 229//229 230//230 224//224
f 225//225 231//231 224//224
f 231//231 232//232 233//233
f 224//224 230//230 234//234
f 229//229 228//228 230//230
f 231//231 233//233 224//224
f 225//225 224//224 234//234
f 235//235 236//236 237//237
f 237//237 238//238 235//235
f 239//239 240//240 241//241
f 243//243 236//236 86//86
f 237//237 236//236 243//243
f 237//237 243//243 156//156
f 244//244 236//236 235//235
f 235//235 242//242 244//244
f 241//241 245//245 239//239
f 246//246 247//247 62//62
f 45//45 249//249 250//250
f 251//251 252//252 249//249
f 248//248 246//246 62//62
f 249//249 45//45 247//247
f 249//249 252//252 250//250
f 254//254 138//138 255//255
f 258//258 209//209 259//259
f 74//74 261//261 260//260
f 263//263 81//81 79//79
f 264//264 265//265 266//266
f 267//267 55//55 266//266
f 266//266 265//265 267//267
f 264//264 266//266 268//268
f 269//269 270//270 271//271
f 61//61 275//275 274//274
f 276//276 275//275 61//61
f 276//276 277//277 275//275
f 278//278 279//279 280//280
f 279//279 282//282 280//280
f 278//278 283//283 279//279
f 280//280 282//282 284//284
f 285//285 286//286 287//287
f 267//267 287//287 286//286
f 286//286 288//288 267//267
f 261//261 12//12 33//33
f 33//33 12//12 256//256
f 253//253 290//290 289//289
f 211//211 291//291 213//213
f 291//291 292//292 213//213
f 293//293 219//219 207//207
f 222//222 294//294 283//283
f 294//294 293//293 283//283
f 278//278 222//222 283//283
f 219//219 293//293 294//294
f 297//297 298//298 71//71
f 77//77 298//298 299//299
f 300//300 301//301 302//302
f 305//305 16//16 306//306
f 309//309 255//255 310//310
f 143//143 313//313 314//314
f 315//315 316//316 150//150
f 231//231 317//317 318//318
f 98//98 318//318 96//96
f 318//318 320//320 96//96
f 320//320 318//318 317//317
f 93//93 321//321 322//322
f 321//321 323//323 322//322
f 322//322 149//149 93//93
f 149//149 322//322 145//145
f 153//153 152//152 324//324
f 59//59 310//310 60//60
f 325//325 326//326 327//327
f 326//326 325//325 329//329
f 330//330 327//327 328//328
f 326//326 328//328 327//327
f 326//326 332//332 328//328
f 332//332 326//326 333//333
f 331//331 329//329 325//325
f 334//334 335//335 336//336
f 337//337 334//334 336//336
f 338//338 264//264 268//268
f 268//268 335//335 338//338
f 338//338 335//335 334//334
f 339//339 336//336 340//340
f 341//341 342//342 343//343
f 206//206 269//269 273//273
f 344//344 285//285 345//345
f 345//345 288//288 344//344
f 346//346 347//347 348//348
f 347//347 272//272 348//348
f 349//349 210//210 350//350
f 309//309 351//351 254//254
f 138//138 254//254 133//133
f 309//309 254//254 255//255
f 254//254 141//141 133//133
f 352//352 277//277 353//353
f 355//355 245//245 356//356
f 245//245 241//241 356//356
f 354//354 355//355 356//356
f 357//357 358//358 359//359
f 357//357 301//301 360//360
f 361//361 357//357 359//359
f 182//182 362//362 186//186
f 182//182 199//199 363//363
f 182//182 364//364 362//362
f 364//364 363//363 366//366
f 182//182 363//363 364//364
f 367//367 205//205 368//368
f 368//368 205//205 369//369
f 136//136 370//370 371//371
f 373//373 372//372 135//135
f 370//370 135//135 372//372
f 311//311 250//250 252//252
f 311//311 252//252 374//374
f 250//250 311//311 59//59
f 57//57 56//56 250//250
f 250//250 56//56 58//58
f 59//59 57//57 250//250
f 375//375 376//376 323//323
f 337//337 339//339 378//378
f 378//378 341//341 337//337
f 379//379 380//380 381//381
f 260//260 257//257 64//64
f 260//260 64//64 74//74
f 382//382 383//383 384//384
f 385//385 386//386 332//332
f 148//148 91//91 93//93
f 307//307 308//308 227//227
f 272//272 387//387 282//282
f 388//388 289//289 389//389
f 300//300 302//302 390//390
f 391//391 392//392 196//196
f 354//354 239//239 355//355
f 393//393 394//394 121//121
f 98//98 397//397 398//398
f 350//350 400//400 399//399
f 27//27 26//26 258//258
f 325//325 365//365 331//331
f 276//276 402//402 353//353
f 162//162 165//165 403//403
f 331//331 392//392 408//408
f 402//402 54//54 409//409
f 387//387 272//272 410//410
f 411//411 379//379 412//412
f 200//200 413//413 414//414
f 114//114 418//418 112//112
f 351//351 309//309 374//374
f 139//139 21//21 20//20
f 14//14 305//305 421//421
f 292//292 291//291 221//221
f 348//348 399//399 346//346
f 308//308 132//132 227//227
f 424//424 425//425 426//426
f 425//425 25//25 426//426
f 346//346 399//399 400//400
f 346//346 427//427 342//342
f 387//387 410//410 342//342
f 427//427 343//343 342//342
f 431//431 429//429 432//432
f 430//430 342//342 341//341
f 378//378 430//430 341//341
f 432//432 429//429 28//28
f 343//343 285//285 287//287
f 341//341 343//343 287//287
f 339//339 430//430 378//378
f 9//9 8//8 11//11
f 31//31 432//432 28//28
f 433//433 432//432 34//34
f 432//432 31//31 34//34
f 341//341 287//287 334//334
f 340//340 277//277 352//352
f 337//337 341//341 334//334
f 340//340 336//336 277//277
f 32//32 34//34 31//31
f 30//30 9//9 2//2
f 264//264 287//287 267//267
f 9//9 11//11 2//2
f 264//264 267//267 265//265
f 267//267 288//288 38//38
f 2//2 11//11 35//35
f 275//275 335//335 274//274
f 46//46 276//276 61//61
f 52//52 266//266 53//53
f 39//39 75//75 81//81
f 349//349 206//206 210//210
f 278//278 280//280 381//381
f 273//273 271//271 283//283
f 212//212 258//258 259//259
f 206//206 273//273 293//293
f 401//401 258//258 212//212
f 206//206 208//208 210//210
f 278//278 381//381 222//222
f 293//293 273//273 283//283
f 33//33 78//78 435//435
f 206//206 293//293 207//207
f 211//211 208//208 207//207
f 78//78 212//212 213//213
f 219//219 223//223 214//214
f 218//218 437//437 94//94
f 77//77 67//67 298//298
f 406//406 441//441 442//442
f 367//367 440//440 445//445
f 443//443 444//444 446//446
f 205//205 367//367 445//445
f 205//205 445//445 447//447
f 445//445 449//449 447//447
f 447//447 449//449 450//450
f 450//450 449//449 451//451
f 453//453 451//451 454//454
f 454//454 451//451 328//328
f 455//455 448//448 456//456
f 303//303 304//304 405//405
f 188//188 200//200 202//202
f 202//202 200//200 414//414
f 62//62 44//44 248//248
f 407//407 463//463 406//406
f 407//407 406//406 442//442
f 388//388 438//438 464//464
f 190//190 205//205 447//447
f 190//190 447//447 450//450
f 190//190 450//450 465//465
f 310//310 311//311 309//309
f 407//407 442//442 417//417
f 467//467 407//407 417//417
f 450//450 451//451 453//453
f 450//450 453//453 465//465
f 455//455 456//456 419//419
f 455//455 419//419 471//471
f 419//419 420//420 471//471
f 132//132 140//140 20//20
f 472//472 377//377 233//233
f 115//115 473//473 405//405
f 478//478 303//303 405//405
f 458//458 419//419 456//456
f 397//397 99//99 105//105
f 105//105 99//99 101//101
f 271//271 279//279 283//283
f 85//85 90//90 94//94
f 153//153 310//310 312//312
f 136//136 134//134 370//370
f 233//233 226//226 229//229
f 361//361 301//301 357//357
f 357//357 360//360 358//358
f 365//365 186//186 362//362
f 408//408 333//333 329//329
f 280//280 284//284 281//281
f 130//130 398//398 480//480
f 71//71 213//213 220//220
f 220//220 88//88 71//71
f 371//371 372//372 482//482
f 482//482 372//372 373//373
f 451//451 449//449 330//330
f 330//330 449//449 485//485
f 325//325 330//330 485//485
f 327//327 330//330 325//325
f 485//485 365//365 325//325
f 326//326 329//329 333//333
f 480//480 397//397 105//105
f 408//408 329//329 331//331
f 130//130 480//480 487//487
f 487//487 479//479 130//130
f 487//487 480//480 488//488
f 393//393 479//479 489//489
f 394//394 393//393 489//489
f 333//333 408//408 481//481
f 176//176 169//169 3//3
f 166//166 176//176 3//3
f 27//27 401//401 5//5
f 490//490 492//492 493//493
f 445//445 440//440 484//484
f 495//495 496//496 422//422
f 496//496 122//122 422//422
f 451//451 330//330 328//328
f 448//448 418//418 116//116
f 457//457 448//448 116//116
f 459//459 458//458 457//457
f 395//395 332//332 333//333
f 331//331 366//366 392//392
f 456//456 448//448 457//457
f 441//441 406//406 483//483
f 456//456 457//457 458//458
f 280//280 412//412 381//381
f 381//381 412//412 379//379
f 217//217 222//222 381//381
f 411//411 412//412 498//498
f 217//217 381//381 380//380
f 434//434 411//411 498//498
f 353//353 277//277 276//276
f 217//217 380//380 218//218
f 218//218 380//380 379//379
f 434//434 498//498 375//375
f 434//434 375//375 323//323
f 409//409 375//375 499//499
f 437//437 321//321 92//92
f 375//375 409//409 376//376
f 402//402 50//50 54//54
f 323//323 376//376 155//155
f 322//322 323//323 155//155
f 92//92 321//321 93//93
f 152//152 157//157 324//324
f 324//324 310//310 153//153
f 324//324 60//60 310//310
f 154//154 153//153 138//138
f 142//142 154//154 138//138
f 145//145 154//154 142//142
f 243//243 148//148 156//156
f 86//86 148//148 243//243
f 309//309 311//311 374//374
f 140//140 139//139 20//20
f 351//351 500//500 314//314
f 306//306 476//476 305//305
f 476//476 500//500 305//305
f 384//384 383//383 501//501
f 501//501 383//383 17//17
f 501//501 17//17 502//502
f 21//21 15//15 18//18
f 17//17 23//23 502//502
f 317//317 225//225 234//234
f 158//158 19//19 423//423
f 22//22 159//159 23//23
f 234//234 502//502 320//320
f 234//234 320//320 317//317
f 158//158 423//423 165//165
f 423//423 503//503 165//165
f 158//158 165//165 160//160
f 23//23 159//159 161//161
f 164//164 23//23 161//161
f 502//502 23//23 504//504
f 319//319 231//231 318//318
f 320//320 502//502 504//504
f 319//319 318//318 98//98
f 161//161 162//162 163//163
f 23//23 164//164 504//504
f 165//165 503//503 301//301
f 97//97 96//96 320//320
f 403//403 165//165 301//301
f 504//504 164//164 474//474
f 397//397 98//98 99//99
f 301//301 300//300 506//506
f 164//164 163//163 474//474
f 300//300 505//505 506//506
f 320//320 504//504 104//104
f 504//504 474//474 104//104
f 97//97 320//320 104//104
f 361//361 403//403 301//301
f 312//312 138//138 153//153
f 223//223 219//219 294//294
f 291//291 207//207 219//219
f 223//223 294//294 222//222
f 78//78 213//213 71//71
f 222//222 215//215 223//223
f 221//221 291//291 219//219
f 411//411 323//323 379//379
f 218//218 379//379 437//437
f 437//437 379//379 321//321
f 379//379 323//323 321//321
f 376//376 157//157 155//155
f 71//71 88//88 297//297
f 90//90 218//218 94//94
f 322//322 155//155 145//145
f 89//89 216//216 90//90
f 312//312 310//310 255//255
f 220//220 216//216 89//89
f 89//89 90//90 83//83
f 312//312 255//255 138//138
f 93//93 149//149 151//151
f 83//83 82//82 87//87
f 82//82 91//91 148//148
f 148//148 93//93 151//151
f 87//87 82//82 236//236
f 254//254 313//313 141//141
f 138//138 133//133 134//134
f 148//148 151//151 146//146
f 86//86 82//82 148//148
f 141//141 313//313 143//143
f 150//150 137//137 136//136
f 144//144 150//150 147//147
f 244//244 87//87 236//236
f 150//150 136//136 371//371
f 242//242 235//235 507//507
f 315//315 150//150 371//371
f 235//235 238//238 507//507
f 141//141 143//143 139//139
f 316//316 147//147 150//150
f 508//508 237//237 156//156
f 371//371 370//370 372//372
f 156//156 147//147 316//316
f 238//238 237//237 508//508
f 139//139 306//306 21//21
f 316//316 315//315 371//371
f 316//316 371//371 509//509
f 510//510 507//507 238//238
f 316//316 509//509 511//511
f 132//132 308//308 135//135
f 156//156 316//316 511//511
f 373//373 135//135 307//307
f 509//509 371//371 482//482
f 156//156 511//511 508//508
f 238//238 508//508 512//512
f 510//510 238//238 512//512
f 508//508 513//513 512//512
f 135//135 308//308 307//307
f 511//511 509//509 482//482
f 132//132 382//382 227//227
f 382//382 384//384 230//230
f 512//512 513//513 514//514
f 513//513 508//508 511//511
f 515//515 512//512 514//514
f 227//227 382//382 228//228
f 510//510 512//512 516//516
f 516//516 512//512 515//515
f 482//482 373//373 490//490
f 440//440 494//494 484//484
f 373//373 307//307 377//377
f 382//382 230//230 228//228
f 510//510 516//516 494//494
f 517//517 482//482 490//490
f 514//514 513//513 204//204
f 511//511 482//482 518//518
f 373//373 377//377 490//490
f 482//482 517//517 518//518
f 227//227 226//226 307//307
f 513//513 511//511 519//519
f 514//514 204//204 201//201
f 519//519 511//511 518//518
f 204//204 513//513 519//519
f 377//377 307//307 233//233
f 494//494 516//516 484//484
f 520//520 490//490 377//377
f 515//515 514//514 201//201
f 491//491 490//490 520//520
f 307//307 226//226 233//233
f 501//501 502//502 230//230
f 228//228 229//229 226//226
f 484//484 516//516 486//486
f 516//516 201//201 181//181
f 518//518 517//517 295//295
f 486//486 516//516 181//181
f 230//230 502//502 234//234
f 377//377 472//472 520//520
f 521//521 491//491 520//520
f 517//517 490//490 493//493
f 517//517 493//493 295//295
f 484//484 486//486 485//485
f 229//229 224//224 233//233
f 181//181 201//201 185//185
f 486//486 181//181 186//186
f 472//472 233//233 232//232
f 521//521 520//520 522//522
f 225//225 317//317 231//231
f 520//520 472//472 522//522
f 491//491 521//521 492//492
f 485//485 486//486 186//186
f 472//472 232//232 523//523
f 232//232 231//231 319//319
f 523//523 232//232 319//319
f 522//522 472//472 523//523
f 365//365 362//362 331//331
f 331//331 362//362 364//364
f 521//521 522//522 524//524
f 331//331 364//364 366//366
f 523//523 319//319 525//525
f 523//523 525//525 398//398
f 522//522 523//523 398//398
f 524//524 522//522 526//526
f 363//363 199//199 193//193
f 525//525 319//319 398//398
f 524//524 526//526 127//127
f 522//522 398//398 526//526
f 319//319 98//98 398//398
f 366//366 363//363 195//195
f 123//123 126//126 121//121
f 366//366 195//195 392//392
f 195//195 363//363 193//193
f 392//392 195//195 196//196
f 121//121 126//126 393//393
f 121//121 394//394 124//124
f 126//126 479//479 393//393
f 126//126 130//130 479//479
f 130//130 526//526 398//398
f 398//398 397//397 480//480
f 131//131 124//124 394//394
f 434//434 323//323 411//411
f 324//324 376//376 409//409
f 498//498 499//499 375//375
f 94//94 437//437 92//92
f 384//384 501//501 230//230
f 157//157 376//376 324//324
f 324//324 409//409 60//60
f 137//137 150//150 142//142
f 60//60 409//409 54//54
f 48//48 41//41 45//45
f 43//43 527//527 528//528
f 135//135 370//370 134//134
f 58//58 48//48 45//45
f 62//62 45//45 41//41
f 58//58 45//45 250//250
f 436//436 209//209 258//258
f 45//45 62//62 247//247
f 249//249 247//247 251//251
f 248//248 253//253 246//246
f 246//246 253//253 529//529
f 251//251 247//247 246//246
f 246//246 475//475 251//251
f 313//313 254//254 314//314
f 289//289 290//290 389//389
f 374//374 252//252 530//530
f 246//246 529//529 531//531
f 530//530 252//252 251//251
f 532//532 475//475 246//246
f 532//532 246//246 531//531
f 382//382 132//132 20//20
f 530//530 251//251 475//475
f 289//289 388//388 464//464
f 476//476 143//143 314//314
f 351//351 374//374 500//500
f 468//468 530//530 475//475
f 306//306 139//139 476//476
f 382//382 20//20 383//383
f 531//531 529//529 464//464
f 475//475 532//532 469//469
f 374//374 530//530 500//500
f 383//383 20//20 18//18
f 475//475 469//469 468//468
f 476//476 314//314 500//500
f 532//532 531//531 535//535
f 530//530 468//468 533//533
f 468//468 534//534 533//533
f 530//530 533//533 500//500
f 468//468 469//469 534//534
f 531//531 464//464 535//535
f 306//306 16//16 21//21
f 532//532 535//535 303//303
f 17//17 383//383 18//18
f 534//534 469//469 477//477
f 500//500 533//533 460//460
f 532//532 303//303 478//478
f 477//477 469//469 478//478
f 469//469 532//532 478//478
f 421//421 500//500 460//460
f 500//500 421//421 305//305
f 536//536 533//533 534//534
f 537//537 534//534 477//477
f 305//305 14//14 16//16
f 535//535 464//464 538//538
f 536//536 534//534 537//537
f 17//17 15//15 23//23
f 539//539 421//421 460//460
f 535//535 538//538 304//304
f 533//533 536//536 540//540
f 460//460 533//533 540//540
f 539//539 460//460 540//540
f 14//14 421//421 541//541
f 541//541 421//421 539//539
f 423//423 14//14 541//541
f 539//539 540//540 542//542
f 19//19 14//14 423//423
f 22//22 19//19 159//159
f 304//304 538//538 404//404
f 542//542 540//540 543//543
f 539//539 542//542 390//390
f 302//302 541//541 539//539
f 423//423 541//541 302//302
f 304//304 404//404 405//405
f 302//302 539//539 390//390
f 423//423 302//302 503//503
f 543//543 544//544 542//542
f 543//543 545//545 544//544
f 390//390 542//542 544//544
f 404//404 538//538 546//546
f 538//538 452//452 546//546
f 547//547 404//404 546//546
f 110//110 546//546 118//118
f 505//505 390//390 544//544
f 546//546 452//452 455//455
f 300//300 390//390 505//505
f 546//546 455//455 471//471
f 546//546 471//471 118//118
f 544//544 548//548 549//549
f 505//505 544//544 549//549
f 171//171 4//4 174//174
f 301//301 506//506 360//360
f 505//505 549//549 506//506
f 174//174 167//167 550//550
f 174//174 550//550 549//549
f 506//506 549//549 360//360
f 551//551 360//360 549//549
f 550//550 167//167 168//168
f 549//549 550//550 551//551
f 358//358 360//360 551//551
f 302//302 301//301 503//503
f 310//310 59//59 311//311
f 254//254 351//351 314//314
f 143//143 476//476 139//139
f 420//420 466//466 120//120
f 106//106 420//420 109//109
f 420//420 120//120 109//109
f 552//552 416//416 369//369
f 416//416 368//368 369//369
f 119//119 552//552 369//369
f 113//113 119//119 553//553
f 119//119 369//369 553//553
f 554//554 555//555 396//396
f 396//396 481//481 391//391
f 396//396 391//391 554//554
f 111//111 113//113 556//556
f 557//557 553//553 369//369
f 559//559 111//111 556//556
f 553//553 557//557 558//558
f 556//556 113//113 553//553
f 369//369 191//191 557//557
f 556//556 553//553 560//560
f 560//560 559//559 556//556
f 560//560 553//553 558//558
f 562//562 558//558 557//557
f 560//560 558//558 563//563
f 561//561 555//555 554//554
f 177//177 557//557 191//191
f 168//168 564//564 565//565
f 563//563 558//558 562//562
f 561//561 554//554 196//196
f 557//557 177//177 562//562
f 203//203 561//561 197//197
f 562//562 177//177 192//192
f 565//565 564//564 566//566
f 197//197 561//561 196//196
f 168//168 565//565 567//567
f 562//562 192//192 296//296
f 567//567 565//565 566//566
f 562//562 296//296 563//563
f 568//568 563//563 296//296
f 569//569 570//570 422//422
f 566//566 569//569 567//567
f 571//571 569//569 422//422
f 567//567 569//569 571//571
f 571//571 422//422 572//572
f 551//551 567//567 359//359
f 129//129 128//128 573//573
f 573//573 128//128 131//131
f 359//359 567//567 571//571
f 572//572 129//129 102//102
f 571//571 572//572 574//574
f 102//102 129//129 575//575
f 573//573 497//497 489//489
f 129//129 573//573 575//575
f 103//103 574//574 572//572
f 575//575 573//573 488//488
f 488//488 573//573 489//489
f 361//361 574//574 163//163
f 103//103 572//572 102//102
f 101//101 575//575 105//105
f 559//559 560//560 576//576
f 471//471 420//420 106//106
f 471//471 106//106 118//118
f 416//416 467//467 417//417
f 404//404 547//547 405//405
f 547//547 110//110 108//108
f 115//115 405//405 108//108
f 385//385 396//396 555//555
f 112//112 119//119 113//113
f 477//477 478//478 473//473
f 473//473 115//115 111//111
f 473//473 111//111 559//559
f 477//477 473//473 559//559
f 391//391 481//481 408//408
f 576//576 577//577 470//470
f 554//554 391//391 196//196
f 566//566 564//564 176//176
f 173//173 577//577 570//570
f 172//172 173//173 570//570
f 551//551 168//168 567//567
f 179//179 185//185 519//519
f 185//185 204//204 519//519
f 572//572 422//422 129//129
f 573//573 131//131 497//497
f 361//361 359//359 574//574
f 359//359 571//571 574//574
f 162//162 403//403 163//163
f 403//403 361//361 163//163
f 474//474 163//163 574//574
f 574//574 103//103 474//474
f 474//474 103//103 104//104
f 102//102 575//575 101//101
f 102//102 101//101 100//100
f 575//575 488//488 480//480
f 105//105 575//575 480//480
f 559//559 576//576 477//477
f 477//477 576//576 537//537
f 413//413 200//200 189//189
f 465//465 413//413 189//189
f 190//190 465//465 189//189
f 74//74 64//64 63//63
f 131//131 128//128 124//124
f 303//303 535//535 304//304
f 169//169 564//564 168//168
f 295//295 578//578 296//296
f 262//262 461//461 579//579
f 580//580 582//582 581//581
f 568//568 125//125 496//496
f 496//496 125//125 123//123
f 123//123 122//122 496//496
f 36//36 76//76 37//37
f 580//580 581//581 583//583
f 79//79 262//262 263//263
f 263//263 262//262 579//579
f 168//168 551//551 550//550
f 581//581 582//582 439//439
f 582//582 119//119 444//444
f 446//446 448//448 452//452
f 175//175 174//174 549//549
f 1//1 37//37 72//72
f 443//443 446//446 452//452
f 263//263 579//579 527//527
f 39//39 263//263 527//527
f 439//439 443//443 584//584
f 548//548 175//175 549//549
f 452//452 538//538 443//443
f 438//438 584//584 464//464
f 584//584 443//443 464//464
f 443//443 538//538 464//464
f 527//527 43//43 49//49
f 576//576 470//470 537//537
f 537//537 470//470 536//536
f 536//536 470//470 540//540
f 173//173 175//175 545//545
f 470//470 173//173 545//545
f 470//470 545//545 540//540
f 540//540 545//545 543//543
f 545//545 175//175 548//548
f 332//332 395//395 396//396
f 396//396 385//385 332//332
f 332//332 386//386 454//454
f 454//454 386//386 465//465
f 453//453 454//454 465//465
f 386//386 385//385 413//413
f 465//465 386//386 413//413
f 555//555 561//561 385//385
f 413//413 385//385 414//414
f 414//414 385//385 561//561
f 414//414 561//561 202//202
f 202//202 561//561 203//203
f 205//205 191//191 369//369
f 463//463 407//407 580//580
f 467//467 416//416 552//552
f 580//580 407//407 467//467
f 296//296 192//192 295//295
f 467//467 552//552 582//582
f 459//459 120//120 466//466
f 458//458 459//459 466//466
f 296//296 578//578 568//568
f 580//580 467//467 582//582
f 359//359 358//358 551//551
f 122//122 129//129 422//422
f 552//552 119//119 582//582
f 458//458 466//466 419//419
f 568//568 496//496 495//495
f 419//419 466//466 420//420
f 568//568 585//585 563//563
f 563//563 585//585 577//577
f 585//585 570//570 577//577
f 560//560 563//563 577//577
f 172//172 569//569 170//170
f 576//576 560//560 577//577
f 116//116 418//418 114//114
f 117//117 446//446 444//444
f 107//107 116//116 114//114
f 418//418 448//448 117//117
f 418//418 117//117 112//112
f 568//568 578//578 125//125
f 192//192 179//179 519//519
f 192//192 519//519 518//518
f 578//578 295//295 493//493
f 125//125 578//578 127//127
f 64//64 257//257 65//65
f 578//578 493//493 127//127
f 354//354 367//367 588//588
f 449//449 445//445 485//485
f 440//440 367//367 354//354
f 408//408 392//392 391//391
f 356//356 440//440 354//354
f 485//485 445//445 484//484
f 127//127 493//493 524//524
f 587//587 299//299 297//297
f 297//297 299//299 298//298
f 365//365 485//485 186//186
f 494//494 440//440 356//356
f 489//489 497//497 394//394
f 589//589 587//587 95//95
f 587//587 297//297 88//88
f 488//488 479//479 487//487
f 494//494 356//356 510//510
f 95//95 587//587 88//88
f 295//295 192//192 518//518
f 201//201 516//516 515//515
f 220//220 292//292 221//221
f 497//497 131//131 394//394
f 439//439 582//582 444//444
f 492//492 490//490 491//491
f 493//493 492//492 524//524
f 524//524 492//492 521//521
f 127//127 526//526 130//130
f 584//584 438//438 439//439
f 448//448 446//446 117//117
f 443//443 439//439 444//444
f 444//444 119//119 117//117
f 417//417 442//442 416//416
f 416//416 442//442 441//441
f 37//37 76//76 68//68
f 416//416 441//441 415//415
f 415//415 441//441 483//483
f 570//570 569//569 172//172
f 79//79 80//80 262//262
f 416//416 415//415 368//368
f 76//76 261//261 74//74
f 566//566 176//176 170//170
f 170//170 4//4 172//172
f 173//173 470//470 577//577
f 454//454 328//328 332//332
f 415//415 483//483 588//588
f 262//262 590//590 461//461
f 368//368 415//415 588//588
f 590//590 262//262 592//592
f 569//569 566//566 170//170
f 592//592 262//262 80//80
f 483//483 591//591 586//586
f 481//481 396//396 395//395
f 367//367 368//368 588//588
f 333//333 481//481 395//395
f 495//495 570//570 585//585
f 590//590 299//299 587//587
f 495//495 585//585 568//568
f 570//570 495//495 422//422
f 176//176 564//564 169//169
f 120//120 459//459 457//457
f 452//452 448//448 455//455
f 489//489 479//479 488//488
f 548//548 544//544 545//545
f 547//547 546//546 110//110
f 478//478 405//405 473//473
f 405//405 547//547 108//108
f 211//211 212//212 259//259
f 258//258 401//401 27//27
f 401//401 212//212 78//78
f 5//5 401//401 33//33
f 33//33 401//401 78//78
f 435//435 78//78 65//65
f 67//67 71//71 298//298
f 82//82 86//86 236//236
f 95//95 87//87 242//242
f 80//80 66//66 592//592
f 589//589 95//95 594//594
f 242//242 87//87 244//244
f 95//95 242//242 594//594
f 590//590 587//587 589//589
f 595//595 589//589 594//594
f 590//590 589//589 595//595
f 594//594 242//242 595//595
f 590//590 595//595 596//596
f 595//595 242//242 240//240
f 596//596 595//595 239//239
f 593//593 596//596 598//598
f 595//595 240//240 239//239
f 462//462 593//593 598//598
f 242//242 507//507 240//240
f 598//598 596//596 239//239
f 240//240 507//507 241//241
f 591//591 239//239 586//586
f 598//598 239//239 591//591
f 241//241 507//507 510//510
f 239//239 245//245 355//355
f 586//586 239//239 354//354
f 241//241 510//510 356//356
f 406//406 463//463 483//483
f 586//586 354//354 588//588
f 483//483 586//586 588//588
f 206//206 349//349 269//269
f 291//291 211//211 207//207
f 84//84 90//90 85//85
f 259//259 208//208 211//211
f 88//88 220//220 89//89
f 257//257 435//435 65//65
f 80//80 70//70 63//63
f 66//66 77//77 592//592
f 592//592 77//77 299//299
f 590//590 592//592 299//299
f 590//590 593//593 461//461
f 599//599 579//579 461//461
f 593//593 590//590 596//596
f 462//462 461//461 593//593
f 462//462 598//598 597//597
f 600//600 290//290 583//583
f 601//601 462//462 597//597
f 600//600 439//439 438//438
f 600//600 438//438 388//388
f 601//601 597//597 463//463
f 597//597 598//598 591//591
f 463//463 597//597 483//483
f 580//580 601//601 463//463
f 597//597 591//591 483//483
f 213//213 292//292 220//220
f 79//79 70//70 80//80
f 44//44 43//43 248//248
f 248//248 43//43 528//528
f 81//81 69//69 79//79
f 527//527 579//579 528//528
f 248//248 528//528 253//253
f 599//599 461//461 462//462
f 528//528 579//579 599//599
f 528//528 599//599 290//290
f 253//253 528//528 290//290
f 599//599 462//462 602//602
f 290//290 599//599 583//583
f 599//599 602//602 583//583
f 583//583 602//602 580//580
f 290//290 600//600 389//389
f 580//580 602//602 601//601
f 253//253 289//289 529//529
f 529//529 289//289 464//464
f 389//389 600//600 388//388
f 439//439 583//583 581//581
f 601//601 602//602 462//462
f 433//433 285//285 343//343
f 431//431 433//433 428//428
f 431//431 428//428 400//400
f 347//347 342//342 410//410
f 387//387 339//339 281//281
f 340//340 352//352 281//281
f 387//387 284//284 282//282
f 347//347 410//410 272//272
f 350//350 399//399 348//348
f 8//8 6//6 256//256
f 426//426 400//400 424//424
f 272//272 270//270 269//269
f 400//400 350//350 424//424
f 281//281 412//412 280//280
f 348//348 272//272 269//269
f 271//271 272//272 282//282
f 349//349 348//348 269//269
f 436//436 424//424 350//350
f 270//270 272//272 271//271
f 271//271 282//282 279//279
f 26//26 424//424 258//258
f 424//424 436//436 258//258
f 209//209 210//210 208//208
f 338//338 334//334 264//264
f 284//284 387//387 281//281
f 281//281 339//339 340//340
f 346//346 342//342 347//347
f 342//342 430//430 339//339
f 281//281 352//352 498//498
f 498//498 412//412 281//281
f 499//499 402//402 409//409
f 274//274 335//335 268//268
f 2//2 35//35 1//1
f 336//336 335//335 275//275
f 268//268 266//266 52//52
f 498//498 352//352 402//402
f 277//277 336//336 275//275
f 55//55 267//267 38//38
f 402//402 352//352 353//353
f 268//268 52//52 61//61
f 274//274 268//268 61//61
f 499//499 498//498 402//402
f 402//402 276//276 50//50
f 276//276 46//46 50//50
f 55//55 38//38 49//49
f 40//40 55//55 49//49
f 46//46 61//61 51//51
f 51//51 40//40 42//42
f 51//51 42//42 47//47
f 36//36 261//261 76//76
f 433//433 343//343 428//428
f 433//433 431//431 432//432
f 350//350 210//210 436//436
f 424//424 26//26 425//425
f 426//426 25//25 429//429
f 209//209 208//208 259//259
f 7//7 429//429 25//25
f 257//257 33//33 435//435
f 6//6 33//33 256//256
f 348//348 349//349 350//350
f 210//210 209//209 436//436
f 286//286 344//344 288//288
f 345//345 285//285 34//34
f 345//345 34//34 288//288
f 28//28 429//429 7//7
f 25//25 425//425 26//26
f 12//12 8//8 256//256
f 35//35 13//13 261//261
f 346//346 400//400 428//428
f 343//343 427//427 428//428
f 400//400 426//426 431//431
f 286//286 285//285 344//344
f 334//334 287//287 264//264
f 288//288 34//34 32//32
f 53//53 266//266 55//55
f 32//32 2//2 38//38
f 33//33 257//257 261//261
f 11//11 13//13 35//35
f 261//261 13//13 12//12
f 38//38 39//39 49//49
f 73//73 75//75 39//39
f 35//35 261//261 36//36
f 75//75 69//69 81//81
f 49//49 39//39 527//527
f 39//39 81//81 263//263
f 8//8 7//7 6//6
f 260//260 261//261 257//257
f 426//426 429//429 431//431
f 427//427 346//346 428//428
f 339//339 387//387 342//342
f 433//433 34//34 285//285
f 339//339 337//337 336//336
f 30//30 2//2 32//32
f 32//32 38//38 288//288
f 269//269 271//271 273//273
f 457//457 116//116 120//120
f 600//600 583//583 439//439
