# Created by Open3D 
# object name: dummy_optimized
# number of vertices: 78
# number of triangles: 152
v -0.130392 -0.0596566 0.987688
vn -0.131115 -0.14308 0.980988
v 0.23137 0.197609 0.951057
vn 0.16742 0.160423 0.972746
v 0.0596566 0.130392 -0.987688
vn 0.14308 0.131115 -0.980988
v 0.23137 -0.197609 -0.951057
vn 0.16742 -0.160423 -0.972746
v -0.197609 0.23137 0.951057
vn -0.160423 0.16742 0.972746
v -0.23137 0.197609 -0.951057
vn -0.16742 0.160423 -0.972746
v -0.197609 -0.23137 -0.951057
vn -0.160423 -0.16742 -0.972746
v 0.197609 -0.23137 0.951057
vn 0.160423 -0.16742 0.972746
v 0.553561 0.126299 0.852545
vn 0.471106 0.193252 0.860647
v -0.126299 0.553561 0.852545
vn -0.193252 0.471106 0.860647
v -0.553561 -0.126299 0.852545
vn -0.471106 -0.193252 0.860647
v 0.126299 -0.553561 0.852545
vn 0.193252 -0.471106 0.860647
v 0.238619 0.456308 0.850012
vn 0.215875 0.477378 0.851768
v -0.456308 0.238619 0.850012
vn -0.477378 0.215875 0.851768
v -0.238619 -0.456308 0.850012
vn -0.215875 -0.477378 0.851768
v 0.456308 -0.238619 0.850012
vn 0.477378 -0.215875 0.851768
v 0.72252 0.442761 0.520888
vn 0.65721 0.490522 0.572244
v 0.333833 0.767205 0.578439
vn 0.291611 0.764753 0.574557
v -0.442761 0.72252 0.520888
vn -0.490522 0.65721 0.572244
v -0.767205 0.333833 0.578439
vn -0.764753 0.291611 0.574557
v -0.72252 -0.442761 0.520888
vn -0.65721 -0.490522 0.572244
v -0.333833 -0.767205 0.578439
vn -0.291611 -0.764753 0.574557
v 0.442761 -0.72252 0.520888
vn 0.490522 -0.65721 0.572244
v 0.767205 -0.333833 0.578439
vn 0.764753 -0.291611 0.574557
v 0.833877 0.13532 0.520888
vn 0.818494 0.143968 0.556184
v -0.166734 0.924555 0.397806
vn -0.150305 0.922292 0.356069
v -0.924555 -0.166734 0.397806
vn -0.922292 -0.150305 0.356069
v 0.166734 -0.924555 0.397806
vn 0.150305 -0.922292 0.356069
v 0.954554 -0.217614 0.288793
vn 0.951216 -0.172145 0.256035
v 0.936693 0.363717 0.181638
vn 0.910041 0.374466 0.177763
v 0.599205 0.822469 0.0768996
vn 0.608472 0.787474 0.0982196
v 0.225598 0.939683 0.232726
vn 0.337994 0.911504 0.234351
v -0.504935 0.823978 0.232726
vn -0.506869 0.829892 0.233157
v -0.822469 0.599205 0.0768996
vn -0.787474 0.608472 0.0982196
v -0.939683 0.225598 0.232726
vn -0.911504 0.337994 0.234351
v -0.823978 -0.504935 0.232726
vn -0.829892 -0.506869 0.233157
v -0.599205 -0.822469 0.0768996
vn -0.608472 -0.787474 0.0982196
v -0.225598 -0.939683 0.232726
vn -0.337994 -0.911504 0.234351
v 0.504935 -0.823978 0.232726
vn 0.506869 -0.829892 0.233157
v 0.822469 -0.599205 0.0768996
vn 0.787474 -0.608472 0.0982196
v -0.116363 0.981608 0.0391085
vn -0.117383 0.992306 0.0393708
v -0.981608 -0.116363 0.0391085
vn -0.992306 -0.117383 0.0393708
v 0.116363 -0.981608 0.0391085
vn 0.117383 -0.992306 0.0393708
v 0.990635 -0.134007 -0.201298
vn 0.977487 -0.116052 -0.176215
v 0.856865 0.480487 -0.116363
vn 0.865871 0.486362 -0.11713
v 0.1527 0.982895 -0.218741
vn 0.115679 0.973818 -0.195696
v -0.480487 0.856865 -0.116363
vn -0.486362 0.865871 -0.11713
v -0.982895 0.1527 -0.218741
vn -0.973818 0.115679 -0.195696
v -0.856865 -0.480487 -0.116363
vn -0.865871 -0.486362 -0.11713
v -0.1527 -0.982895 -0.218741
vn -0.115679 -0.973818 -0.195696
v 0.480487 -0.856865 -0.116363
vn 0.486362 -0.865871 -0.11713
v 0.939683 0.225598 -0.232726
vn 0.945234 0.228411 -0.233156
v 0.734844 0.627616 -0.232726
vn 0.738513 0.632643 -0.233157
v -0.225598 0.939683 -0.232726
vn -0.228411 0.945234 -0.233156
v -0.627616 0.734844 -0.232726
vn -0.632643 0.738513 -0.233157
v -0.939683 -0.225598 -0.232726
vn -0.945234 -0.228411 -0.233156
v -0.734844 -0.627616 -0.232726
vn -0.738513 -0.632643 -0.233157
v 0.225598 -0.939683 -0.232726
vn 0.228411 -0.945234 -0.233156
v 0.627616 -0.734844 -0.232726
vn 0.632643 -0.738513 -0.233157
v 0.32317 0.833381 -0.496776
vn 0.313037 0.810451 -0.495153
v -0.833381 0.32317 -0.496776
vn -0.810451 0.313037 -0.495153
v -0.32317 -0.833381 -0.496776
vn -0.313037 -0.810451 -0.495153
v 0.833381 -0.32317 -0.496776
vn 0.810451 -0.313037 -0.495153
v 0.767205 0.333833 -0.578439
vn 0.764753 0.291611 -0.574557
v 0.529431 0.56854 -0.613997
vn 0.533237 0.578281 -0.617454
v -0.333833 0.767205 -0.578439
vn -0.291611 0.764753 -0.574557
v -0.56854 0.529431 -0.613997
vn -0.578281 0.533237 -0.617454
v -0.767205 -0.333833 -0.578439
vn -0.764753 -0.291611 -0.574557
v -0.529431 -0.56854 -0.613997
vn -0.533237 -0.578281 -0.617454
v 0.409439 -0.720946 -0.604102
vn 0.443126 -0.660053 -0.606605
v 0.553561 -0.126299 -0.852545
vn 0.471106 -0.193252 -0.860647
v 0.126299 0.553561 -0.852545
vn 0.193252 0.471106 -0.860647
v -0.553561 0.126299 -0.852545
vn -0.471106 0.193252 -0.860647
v -0.126299 -0.553561 -0.852545
vn -0.193252 -0.471106 -0.860647
v 0.456308 0.238619 -0.850012
vn 0.477378 0.215875 -0.851768
v -0.238619 0.456308 -0.850012
vn -0.215875 0.477378 -0.851768
v -0.456308 -0.238619 -0.850012
vn -0.477378 -0.215875 -0.851768
v 0.238619 -0.456308 -0.850012
vn 0.215875 -0.477378 -0.851768
f 1//1 2//2 5//5
f 3//3 7//7 6//6
f 3//3 4//4 7//7
f 1//1 8//8 2//2
f 2//2 10//10 5//5
f 5//5 11//11 1//1
f 1//1 12//12 8//8
f 8//8 9//9 2//2
f 9//9 13//13 2//2
f 13//13 10//10 2//2
f 10//10 14//14 5//5
f 14//14 11//11 5//5
f 11//11 15//15 1//1
f 15//15 12//12 1//1
f 12//12 16//16 8//8
f 16//16 9//9 8//8
f 17//17 13//13 9//9
f 17//17 18//18 13//13
f 18//18 10//10 13//13
f 19//19 14//14 10//10
f 19//19 20//20 14//14
f 20//20 11//11 14//14
f 21//21 15//15 11//11
f 21//21 22//22 15//15
f 22//22 12//12 15//15
f 23//23 16//16 12//12
f 23//23 24//24 16//16
f 24//24 9//9 16//16
f 25//25 17//17 9//9
f 18//18 26//26 10//10
f 26//26 19//19 10//10
f 20//20 27//27 11//11
f 27//27 21//21 11//11
f 22//22 28//28 12//12
f 28//28 23//23 12//12
f 24//24 25//25 9//9
f 24//24 29//29 25//25
f 29//29 30//30 25//25
f 30//30 17//17 25//25
f 30//30 31//31 17//17
f 31//31 18//18 17//17
f 31//31 32//32 18//18
f 32//32 26//26 18//18
f 26//26 33//33 19//19
f 33//33 34//34 19//19
f 34//34 20//20 19//19
f 34//34 35//35 20//20
f 35//35 27//27 20//20
f 27//27 36//36 21//21
f 36//36 37//37 21//21
f 37//37 22//22 21//21
f 37//37 38//38 22//22
f 38//38 28//28 22//22
f 28//28 39//39 23//23
f 39//39 40//40 23//23
f 40//40 24//24 23//23
f 40//40 29//29 24//24
f 32//32 41//41 26//26
f 35//35 42//42 27//27
f 38//38 43//43 28//28
f 44//44 30//30 29//29
f 45//45 31//31 30//30
f 31//31 46//46 32//32
f 46//46 41//41 32//32
f 41//41 33//33 26//26
f 41//41 47//47 33//33
f 47//47 34//34 33//33
f 34//34 48//48 35//35
f 48//48 42//42 35//35
f 42//42 36//36 27//27
f 42//42 49//49 36//36
f 49//49 37//37 36//36
f 37//37 50//50 38//38
f 50//50 43//43 38//38
f 43//43 39//39 28//28
f 43//43 51//51 39//39
f 51//51 40//40 39//39
f 40//40 44//44 29//29
f 44//44 52//52 30//30
f 52//52 45//45 30//30
f 53//53 31//31 45//45
f 46//46 54//54 41//41
f 54//54 47//47 41//41
f 55//55 34//34 47//47
f 48//48 56//56 42//42
f 56//56 49//49 42//42
f 57//57 37//37 49//49
f 50//50 58//58 43//43
f 58//58 51//51 43//43
f 59//59 40//40 51//51
f 53//53 60//60 31//31
f 60//60 46//46 31//31
f 55//55 61//61 34//34
f 61//61 48//48 34//34
f 57//57 62//62 37//37
f 62//62 50//50 37//37
f 59//59 63//63 40//40
f 63//63 44//44 40//40
f 44//44 64//64 52//52
f 64//64 45//45 52//52
f 64//64 53//53 45//45
f 64//64 65//65 53//53
f 65//65 60//60 53//53
f 46//46 66//66 54//54
f 66//66 47//47 54//54
f 66//66 55//55 47//47
f 66//66 67//67 55//55
f 67//67 61//61 55//55
f 48//48 68//68 56//56
f 68//68 49//49 56//56
f 68//68 57//57 49//49
f 68//68 69//69 57//57
f 69//69 62//62 57//57
f 50//50 70//70 58//58
f 70//70 51//51 58//58
f 70//70 59//59 51//51
f 70//70 63//63 59//59
f 63//63 64//64 44//44
f 60//60 66//66 46//46
f 61//61 68//68 48//48
f 62//62 70//70 50//50
f 71//71 64//64 63//63
f 65//65 72//72 60//60
f 72//72 66//66 60//60
f 67//67 73//73 61//61
f 73//73 68//68 61//61
f 69//69 74//74 62//62
f 74//74 70//70 62//62
f 70//70 71//71 63//63
f 71//71 75//75 64//64
f 75//75 65//65 64//64
f 75//75 72//72 65//65
f 72//72 76//76 66//66
f 76//76 67//67 66//66
f 76//76 73//73 67//67
f 73//73 77//77 68//68
f 77//77 69//69 68//68
f 77//77 74//74 69//69
f 74//74 78//78 70//70
f 78//78 71//71 70//70
f 71//71 3//3 75//75
f 3//3 72//72 75//75
f 72//72 6//6 76//76
f 6//6 73//73 76//76
f 73//73 7//7 77//77
f 7//7 74//74 77//77
f 74//74 4//4 78//78
f 4//4 71//71 78//78
f 4//4 3//3 71//71
f 3//3 6//6 72//72
f 6//6 7//7 73//73
f 7//7 4//4 74//74
